/* XPM */
static char *_[] = {
/* columns rows colors chars-per-pixel */
"85 85 249 2 ",
"   c #39351D",
".  c #35311B",
"X  c #3B2E24",
"o  c #3D2D2B",
"O  c #352D28",
"+  c #3B3324",
"@  c #3B322B",
"#  c #363528",
"$  c #392D34",
"%  c #393636",
"&  c #2E3129",
"*  c #432F1D",
"=  c #432D2B",
"-  c #442D25",
";  c #45352A",
":  c #463934",
">  c #583B37",
",  c #442B33",
"<  c #5E3539",
"1  c #3C4730",
"2  c #44442A",
"3  c #54472D",
"4  c #484A37",
"5  c #564637",
"6  c #475439",
"7  c #485332",
"8  c #63483B",
"9  c #54613B",
"0  c #3B3A48",
"q  c #523C43",
"w  c #793853",
"e  c #6E324B",
"r  c #3C4D53",
"t  c #484943",
"y  c #584946",
"u  c #495846",
"i  c #595847",
"p  c #515857",
"a  c #644947",
"s  c #694C54",
"d  c #774758",
"f  c #675957",
"g  c #765758",
"h  c #705349",
"j  c #546A4A",
"k  c #56794D",
"l  c #5A6756",
"z  c #597856",
"x  c #496851",
"c  c #666B5A",
"v  c #696759",
"b  c #77685A",
"n  c #65745B",
"m  c #667A5D",
"M  c #766852",
"N  c #486266",
"B  c #556B6D",
"V  c #6B6963",
"C  c #776862",
"Z  c #697863",
"A  c #73756F",
"S  c #525D62",
"D  c #88385A",
"F  c #903D5E",
"G  c #983C64",
"H  c #A23E6B",
"J  c #894859",
"K  c #924B5D",
"L  c #8A5658",
"P  c #96585B",
"I  c #865D4F",
"U  c #866859",
"Y  c #98675D",
"T  c #897159",
"R  c #8C4B62",
"E  c #994665",
"W  c #8A5463",
"Q  c #975568",
"!  c #A5466B",
"~  c #A5536C",
"^  c #AC4571",
"/  c #B74A76",
"(  c #AC5571",
")  c #BA5475",
"_  c #B14C6F",
"`  c #98666A",
"'  c #997867",
"]  c #897777",
"[  c #8C726C",
"{  c #A56B61",
"}  c #A97563",
"|  c #A87977",
" . c #B1786A",
".. c #A26D5F",
"X. c #C34E7C",
"o. c #CC5A7E",
"O. c #C5557A",
"+. c #D0597F",
"@. c #5B875A",
"#. c #5E945B",
"$. c #64845E",
"%. c #64945B",
"&. c #5E8962",
"*. c #59936C",
"=. c #658863",
"-. c #639465",
";. c #679968",
":. c #759971",
">. c #69A46C",
",. c #69AB6E",
"<. c #64A36A",
"1. c #6AB66D",
"2. c #6BAC72",
"3. c #67A872",
"4. c #74AB75",
"5. c #6CB473",
"6. c #6EBC75",
"7. c #6CBC7B",
"8. c #67B778",
"9. c #73BC75",
"0. c #74BD7A",
"q. c #77B878",
"w. c #76B96D",
"e. c #5DAD6A",
"r. c #5CC76D",
"t. c #6AC56E",
"y. c #6DC375",
"u. c #6DC47B",
"i. c #6AC778",
"p. c #73C375",
"a. c #72C37A",
"s. c #79C37C",
"d. c #76C778",
"f. c #72C76F",
"g. c #90866E",
"h. c #BB826A",
"j. c #B2857B",
"k. c #81B473",
"l. c #C2876D",
"z. c #C98D71",
"x. c #CD9274",
"c. c #D89A76",
"v. c #E7A77C",
"b. c #DFA17B",
"n. c #81C277",
"m. c #4B7D8B",
"M. c #567A87",
"N. c #677382",
"B. c #A47887",
"V. c #CD5283",
"C. c #CA5780",
"Z. c #D45585",
"A. c #D95B85",
"S. c #C94F81",
"D. c #E25E8B",
"F. c #D96186",
"G. c #CF6F8D",
"H. c #E5638B",
"J. c #EB658D",
"K. c #E9678C",
"L. c #EE6890",
"P. c #F46A92",
"I. c #FE6E95",
"U. c #F16792",
"Y. c #FD7196",
"T. c #FC7499",
"R. c #FB7A9D",
"E. c #F3779B",
"W. c #EC7497",
"Q. c #FA7EA0",
"!. c #3D9B9F",
"~. c #4B828D",
"^. c #48858B",
"/. c #4B8694",
"(. c #548894",
"). c #549697",
"_. c #509192",
"`. c #718C8B",
"'. c #59AA9D",
"]. c #6DBD81",
"[. c #76BC83",
"{. c #79B394",
"}. c #4B9AA8",
"|. c #559AAB",
" X c #559DB6",
".X c #559DB8",
"XX c #4C9AB2",
"oX c #4AA5AC",
"OX c #56A8A8",
"+X c #5BB2A5",
"@X c #4DA4B4",
"#X c #4CA9B4",
"$X c #4DA4BA",
"%X c #48A9B8",
"&X c #53A3B4",
"*X c #53A4BB",
"=X c #56A7B8",
"-X c #5BB1B5",
";X c #66B2B0",
":X c #6394A8",
">X c #6CC583",
",X c #6DC784",
"<X c #74C482",
"1X c #77C886",
"2X c #75C7B0",
"3X c #4CA5C3",
"4X c #53A5C2",
"5X c #509DC2",
"6X c #7AC9C0",
"7X c #978D8B",
"8X c #B78C8B",
"9X c #91B694",
"0X c #A1A097",
"qX c #C59A8B",
"wX c #CD9292",
"eX c #D4A38A",
"rX c #D8AC96",
"tX c #D6AB96",
"yX c #E9AC84",
"uX c #EAB694",
"iX c #E887A3",
"pX c #FA83A4",
"aX c #F88BAA",
"sX c #F892AE",
"dX c #F89BB5",
"fX c #F897B2",
"gX c #F7A4BC",
"hX c #EBBDA1",
"jX c #DC8DA5",
"kX c #88C98B",
"lX c #8AC995",
"zX c #8BD196",
"xX c #8ED29E",
"cX c #94D296",
"vX c #96C793",
"bX c #8FD4AA",
"nX c #AAD2AE",
"mX c #8CE7BA",
"MX c #F4C6A7",
"NX c #F5C19C",
"BX c #F7ACC2",
"VX c #F7B3C7",
"CX c #93E8C8",
"ZX c #A4D9C4",
"AX c #D1DAD3",
"SX c #E4DADA",
"DX c #DBDCE3",
"FX c #E6DCE5",
"GX c #DDE2E0",
/* pixels */
"*X*X@X&X&X#X=X4X$X%X&X&X@X@X*X3X3X@X@X$X@X#X#X#XoX@X=X&X&X*X*X$X@XoX#X#X*X#X#X X X#X@X@X@X@X*X*X@X*X*XOX&X3X*X&X@X@X#X@X$X&X&X%X#X@X*X*X*X*X3X*X*X#X#X#X@X@X*X=X@X$X4X*X&X",
"&X&X@X&X&X~.~././.^.'.+X+X).(.(.(.@X}.(.~.^.+X+X+X-X;X&X&X*X*X&X}._.~.~.~.).+X~.m.~.}.&X/.m.~._.+X/.~.&X&X$X).~.~./.+X).^.~./.%X}.(.~.~.+X+XOX_.m.^.^.^.}.@X*X*X$X$X*X&X&X",
"oXoX*X*X=X% O # # = <.i.1X-.3 5 < #X(.a : o w.1XbXxX2X&XXX@X X:XB B , ; + @.7.2 + , B &Xr $ + j d.6 & &X&X&XN o $ t p.k & # % =XM.q ; X 1.1.p.j = O O $ N %X$X$X4X*X@X@X#X",
"#X&X4X*X*X0 $ # o = >.0.i.%.3 5 5 B l 5 : # 4.1XxXzXlXB N A A A f i o = - @.u.: # # t B : # - j i.u O N N B 4 + = 4 9.k % + # B f 8 : + a.a.a.j = o o % N }.@X$X X&XoXoXoX",
"#X=X4X4X5X0 % X - = :.0.t.#.4 3 3 5 5 3 : # 8.1XzXzXzX7   h h L a 5 o o = @.u.: o # : 5 ; + - j >Xu $ = ; 3 ; + - 4 0.z $ X . > > 8 : + 1X1Xa.j ; = o # N _.@X#X|.|.oXoXoX",
"mX2X|.`.T T T T :.i.AXAXAX7X= > y 5 5 ; @.1.1X2.2 : : > > 5 y y : # o o # &.,X: = + : < # O # j y.kXvXvX:.# @.8.5.5.p.0.9X9X9X# # + $.4.xXxXcXc X e.1.1.k : % % : q 0 (.*X",
"mX2X(.A U M U g.k.d.nXAXAX0Xs y y > 3 4 #.i.1X4.i i p > > 5 5 5 4 6 4 4 6 *.,Xi 5 6 5 > 4 1 4 k i.zXcXcX4.4 *.>Xa.a.p.1XzXvX9X4 4 1 <.a.nXnXnXn - 8.u.p.$.i ; X = $ % /.=X",
"CX9X5 5 y = 5 zXkX0.[.[.i.xXDXV $ - 6 y.6.9.a.kXGXGXDXs - X + + %.p.d.d.a.i.y.zXlXzXZ = 2.1Xa.a.d.u.7.a.a.p.9.6.n.n.d.a.>X0.9.p.p.f.i.u.FXGXAX] > q.1Xs.kXzXy = # # O ~.&X",
"CX{.: : : z $.1Xs.0.0.a.u.xXDXV # - 6 u.a.0.0.kXSXDXDXy o o # + %.p.p.p.u.i.6.lXcXlXm o <.a.y.i.p.a.1Xp.p.9.p.i.p.p.q.a.1Xa.p.0.a.a.a.0.FXFXAXA ; 5.a.q.kXzX=.k o X + m. X",
"mX{.# +   0.1Xi.i.a.s.s.u.xXAXc + ; u i.1X[.0.kXSXSXDXy O $ # & #.p.i.i.i.9.q.cXcXzXm O <.u.r.t.w.a.1Xi.p.q.p.f.i.i.9.0.1Xd.d.[.[.1X[.[.FXFXAXA + 1.p.w.kXzX,X8.- - + m. X",
"-X~.o X X 8.>Xp.i.u.0.0.a.1XlX5.<.>.1.y.a.0.1X1XlXlXkX4.>.<.<.;.7.1X0.0.1Xa.p.0.1X,X8.>.7.>Xi.p.p.7.7.p.a.1Xa.u.i.i.p.i.u.a.a.p.p.i.i.i.kXkXlX5.<.p.a.p.u.,XnXnX3.>.<.OX*X",
"@Xm.o X X 3.8.1.6.i.0.0.s.a.1Xa.i.s.a.y.i.0.1X1X1X0.0.s.a.u.u.].1X1X0.0.1Xa.p.5.8.>X[.q.].].9.9.9.5.5.9.9.0.7.u.i.i.p.i.i.a.0.p.p.i.i.i.i.u.>Xu.i.a.a.i.i.i.AXAX1X1X7.+X*X",
" Xm.# - - , , = z 1Xp.p.i.i.i.9.q.0.0.i.a.a.p.p.a.u.u.a.a.i.i.a.i.i.9.9.6.6.1.:.;.@.m n n n n n n z z B B @.=.-.3.2.0.9.9.,X,X0.a.>Xa.p.n.s.u.0.9.[.[.a.p.i.AXDXi.i.i.+X X",
"@X_.j j j c V ] :.a.p.p.p.u.u.0.0.0.a.u.a.a.p.p.a.a.u.a.a.i.i.a.6.5.>.>.;.-.-.=.Z n b b b C C C b C C V V c n n =.=.:.>.,.7.1X0.a.>Xa.p.s.s.a.p.6.0.0.a.p.i.0X0X%.%.%.). X",
"%X+X0.1X>XcXnXSXnXa.9.9.d.d.a.a.a.a.a.a.a.a.a.a.a.a.a.a.a.a.a.6.,.>.@.z l f f g g L L W Q Q Q Q Q Q Q R J d s s f f z &.-.2.5.a.a.a.a.a.0.0.s.i.y.0.0.s.a.i.4 + 4 3 3 ~.@X",
"&X+Xp.u.>XcXnXDXnXi.u.u.u.a.a.a.a.a.a.a.a.a.a.a.a.a.a.6.5.<.;.=.n v C W Q Q ~ ( ( ) O.o.C.C.F.F.C.C.C.o.O.( ! ! R J g g v m =.>.5.6.a.a.u.u.a.u.u.u.a.s.s.a.u 5 a a y (.@X",
"&X+Xi.u.>XcXnXDXnXt.u.u.u.u.a.a.a.a.a.a.a.a.a.a.a.a.a.6.5.-.&.z v f W Q ~ ( ) o.o.C.F.H.H.H.J.J.J.J.H.H.F.o.O./ E E J d s v l ;.,.6.a.a.u.u.u.u.u.u.u.s.s.s.i 5 h h y (.@X",
"#X~.. X # 1.i.>Xa.9.d.d.p.p.a.a.a.a.a.a.a.a.a.a.6.,.-.n v g L Q ( O.F.H.L.P.I.I.I.I.I.I.I.I.I.I.I.I.I.I.I.P.P.U.A.C.O./ ^ F D s f z <.5.s.a.9.9.6.1X1X6.u.u.f a > l '.*X4X",
"=X~.; ; : #.<.>X0.0.d.d.a.a.a.a.a.a.a.a.a.a.6.5.<.-.=.b b Q Q ( o.C.H.L.P.I.I.I.I.I.I.I.I.I.I.I.I.I.Y.R.T.E.P.P.D.A.o.O./ G G d g c =.;.9.9.9.9.i.1Xa.6.i.u.i > > l *.|.*X",
"%X/.y 8 8 # 6 0.0.1X9.w.>X>Xa.a.a.a.a.a.a.a.,.;.z v g Q Q o.A.J.P.P.I.I.Y.T.T.Y.Y.I.I.I.I.I.I.I.I.T.T.aXaXpXR.Y.P.P.H.A.Z./ / E R d f l <.,.6.a.d.0.0.i.i.u.6 + 5 5 5 _.#X",
"*X|.M.f y ; 4 p.0.0.a.a.i.u.a.a.a.a.a.9.5.>.=.Z b W ~ O.o.H.J.P.I.I.I.T.pXpXaXR.R.I.I.I.I.I.I.I.I.T.T.fXfXfXpXR.I.I.J.H.A.V.O./ _ E d s =.=.5.6.i.a.a.p.p.p.*.k # : , ~.$X",
".X X|.B q = 4 i.9.0.1X1Xt.i.a.a.a.a.a.6.<.-.c v W ~ O.H.J.P.I.I.I.I.I.T.aXfXfXpXQ.I.I.I.I.I.I.I.I.T.T.gXgXBXsXQ.I.I.P.J.H.C.Z.S./ ^ F w l Z 2.5.6.a.a.p.p.d.7.3.. + o ~.$X",
"*X/.: $ # 9X9X,X>X7.u.u.[.a.a.a.a.5.,.&.n f Q ( F.H.L.I.I.I.I.I.I.I.R.aXVXBXBXpXR.I.I.I.I.I.I.I.I.Y.Y.sXfXVXfXsXT.Y.I.I.P.H.A.Z.V.V./ / d d n -.,.1X1Xp.p.i.>X>Xq.4.1.bXCX",
"*X~.X # # 9XxX,X>X7.u.u.[.a.a.a.a.,.;.$.V C ( ) H.L.P.I.I.I.I.I.I.I.pXaXVXBXgXQ.R.I.I.I.I.I.I.I.I.Y.Y.aXfXBXfXaXT.Y.I.I.P.J.D.Z.Z.V.X./ D d v =.<.[.a.p.p.i.3.3.kX1Xi.bXCX",
"&X*.. + # vXcXu.u.1Xp.f.y.i.a.6.5.@.Z V ] B.W.W.I.I.I.I.I.I.I.I.I.I.aXsXgXfXaXT.Y.I.I.I.I.I.I.I.I.I.I.T.R.aXpXpXY.Y.I.I.I.P.P.A.Z.V.V.V.^ E d c &.5.7.9.p.i.7 2 zXzXzXmXCX",
"6X'.k k k kXkXu.u.a.p.p.i.i.9.>.;.Z A ] B.G.W.E.I.I.I.I.I.I.I.I.I.I.pXpXsXpXpXY.I.I.I.I.I.I.I.I.I.I.I.Y.T.Q.R.R.Y.I.I.I.I.I.P.D.A.Z.V.V./ ^ J g n 2.5.9.a.a.4 2 zXzXzX2X2X",
"CXmX7.p.f.1X1Xa.p.i.a.s.p.9.6.-.@.V A B.G.W.I.I.I.I.I.I.I.I.I.I.I.I.R.R.Q.R.T.I.I.I.I.I.I.I.I.I.I.I.I.I.I.Y.Y.Y.I.I.I.I.I.I.I.J.D.Z.V.V.S./ G d f 3.2.9.a.1X5 : zXzXzX+XoX",
"mX{.t 4 6 1.i.1Xa.a.p.i.i.,.-.Z V B.B.W.W.T.T.T.Y.I.I.I.I.I.I.I.I.I.Y.Y.Y.Y.I.P.P.P.P.P.U.J.J.J.J.J.J.P.I.I.I.I.I.I.I.I.I.I.I.P.J.A.Z.Z.V.X./ R d m =.6.a.s.i 5 3 4 u (.*X",
"mX{.q $ + 1.i.1Xa.a.p.i.i.,.=.Z V B.G.W.E.T.R.T.T.Y.I.I.I.I.I.I.I.I.I.I.I.I.I.P.P.U.U.U.J.J.J.H.A.H.H.P.P.I.I.I.I.I.I.I.I.I.I.P.U.D.A.Z.V.S./ E w v $.6.9.s.i 5 - ; , (.=X",
"CXmX|.N o 2.0.>X7.7.a.a.>.=.c ] B.iXiXT.Q.pXfXfXpXR.I.I.I.I.I.I.I.I.I.I.P.J.J.D.D.A.Z.Z.Z.Z.V./ H G G o.A.P.I.I.I.I.I.I.I.I.I.I.I.U.D.A.V.V.V.^ G s v >.1.p.i 3 M M M (.@X",
"CXmX XN : k #.a.a.6.0.9.-.=.C B.G.iXE.T.R.pXgXdXaXQ.I.I.I.I.I.I.I.I.P.P.J.H.D.Z.V.X.X./ / / / H G D D _ O.H.P.I.I.I.I.I.I.I.I.T.T.E.H.A.V.V.V./ ! d v ;.1.9.i 3 M M M (.@X",
"mX2X$XB y . 1 d.p.p.9.4.z Z [ wXjXR.T.I.R.pXBXBXfXpXY.I.I.I.I.I.P.P.J.H.A.Z.Z./ / ^ H G D D D D w e e D E o.H.P.I.I.I.I.I.I.Y.Q.pXaXL.H.V.V.V.X./ d g -.,.6.i 3 M M h (.&X",
";X;X}.N : :.4.p.a.u.3.;.V ] 8XjXiXT.Y.I.T.R.BXBXfXpXT.I.I.I.I.I.J.H.A.Z.X./ ^ G G K K J K K P J J e e e w ! C.L.I.I.I.I.I.Y.T.fXfXgXiXW.Z.Z.V.S.X.D d m :.9.5 : a v `.|.*X",
"=X&X}.N ; kXcXp.u.u.<.*.V [ 8XiXaXY.Y.I.T.R.gXgXfXpXT.I.I.I.I.P.H.D.Z.V./ ! G D D J J L P P P P L d e , e E o.L.I.I.I.I.I.Y.T.gXgXBXiXW.Z.Z.V.V.S.F d n :.q.4 = 5 B :X*X4X",
"oX^.O o , 9XxX7.0.4.=.z B.8XjXiXR.I.I.I.Y.Y.pXpXQ.T.Y.I.I.P.U.D.Z.V.H G D J J { } l.z.x.c.c.c.c.x.h. .e e D ) H.I.I.I.I.I.R.pXVXBXgXE.L.Z.Z.V.V.V.G R c -.5.4 # X # $ ^.%X",
"@X_.6 u i 9XlXu.9.4.Z Z 7X8XiXE.T.I.I.I.I.Y.R.R.R.T.Y.I.I.H.D.Z.X./ G G J P P  .h.x.c.c.c.c.c.c.x.l. .e e D ) H.I.I.I.I.I.R.pXBXgXfXE.L.Z.Z.V.V.V.H E v =.,.4 # X + $ ^.%X",
"4X+Xi.a.1Xy.i.a.5.>.Z V 8XwXaXR.Y.I.I.I.I.I.I.I.I.I.I.P.J.O.X./ ! G D J Y  .z.v.v.v.yXyXv.v.c.c.x.x.z.J J D O.H.I.I.I.I.I.R.R.sXaXpXE.P.A.Z.V.V.V.! E f n -.4 +     - ~.$X",
"$X_.j j j x k >X2.-.Z A wXjXpXT.I.I.I.I.I.I.I.I.I.I.I.J.A.! G G F D P { l.x.c.v.v.c.x.z.h. .} } ' ' ` e D G o.J.I.I.I.I.I.T.T.pXQ.R.P.P.A.Z.V.V.V.^ E f n *.=.=.@.#.@.).&X",
"XXm.; o o O 4 >X3.$.Z A jXiXpXT.I.I.I.I.I.I.I.I.I.I.I.F.o.D D w w w {  .c.v.v.v.v.x.l. .Y Y U U b g g e w ! +.J.I.I.I.I.I.Y.Y.T.T.Y.P.P.A.Z.V.V.V./ E s n *.[.{.>Xu.i.'.&X",
"#X~.$ = * = 4 y.<.$.] B.jXiXR.T.I.I.I.I.I.I.I.I.I.I.I.C.) w e e L Y c.c.v.v.c. .} U b v n n =.=.=.l i e D O.H.I.I.I.I.I.I.I.I.I.I.I.P.P.A.Z.V.V.V./ ^ d V :.4 : 2 : : /.$X",
"&X/.r : ; ; 4 <.-.$.] 7XjXiXT.Y.I.I.I.I.I.I.I.I.I.I.I.C.) w e e P { c.v.v.c.x.} Y b b n $.=.-.=.=.l y e J o.J.I.I.I.I.I.I.I.I.I.I.I.P.P.A.Z.V.X.X.^ ! s V :.4 X + o , m.$X",
"&X&X XB 5 8 5 X t z B.7XiXiXT.Y.I.I.I.I.I.I.I.I.I.I.I.C.O.e e e { l.v.v.z.} U v n =.;.>.5.5.5.<.&.l y ! ) J.P.I.I.I.I.I.I.I.I.I.I.I.P.U.Z.V./ ^ H D w y z ;.4 + X o , (.4X",
"2X;X&XN : : 5 m z z ] B.iXE.T.T.R.T.T.I.I.I.I.I.I.I.I.H.o.w e e { l.c.x.} T b =.=.<.,.5.2.,.-.=.c g d O.C.J.I.I.I.I.I.I.I.I.I.I.I.I.P.U.V.X.H E E w e l m >.6 : : t N ).$X",
"CXmXoXN $ X 4 zX4.z ] B.iXE.T.Q.pXR.T.I.I.I.I.I.I.I.I.J.A.D w e { h.z.h.U b n <.,.6.6.6.,.<.z v s R E H.J.P.I.I.I.I.I.I.I.I.I.I.I.I.U.J.o./ D J J e a l =.2.i 5 a S _.}.XX",
"mX{.t % # # 6 lX4.n ] ] W.E.T.sXfXgXfXpXR.Y.I.I.I.I.I.I.P./ ! w J P I g s n &.;.;.-.=.&.l l s W ~ o.C.I.I.I.I.I.I.I.I.I.I.I.I.I.I.I.J.D./ ! D P { L L c -.8.4 ; # r }.@X@X",
"mX{.: % 1 1 u zX4.m [ [ W.W.T.fXgXBXgXaXR.Y.I.I.I.I.I.I.I.o._ F J J h h y l &.-.-.=.m n f s d E O.F.H.I.I.I.I.I.I.I.I.I.I.I.I.I.I.I.J.D.^ ! D P } P L c :.8.4 X O r /.oX#X",
"CXbXd.p.9.>X>X>X3.&.[ ` F.L.Y.pXaXVXBXgXaXR.I.I.I.I.I.I.I.P.H.o.! E w e e a s s s d J K ~ ( C.H.P.I.I.Y.Y.Y.I.I.I.I.I.I.I.I.I.I.I.P.D.A.H E J { l.Y U n -.5.4 ; ; o $ ~.&X",
"6X{.$.@.@.@.*.1X3.&.[ ` F.L.Y.R.pXgXfXfXpXR.I.I.I.I.I.I.I.I.J.F.O.( G G J J R R R E ! ( O.o.H.J.I.T.R.pXQ.T.Y.I.I.I.I.I.I.I.I.I.I.P.D.A.H E J { h.Y U m ;.8.k j l l l _.&X",
"=X(., $ #   7 0.3.&.C W F.L.I.Y.Y.pXpXpXR.T.I.I.I.I.I.I.I.I.I.P.J.H.o.o.) ) ) O.O.o.A.H.P.P.I.I.Y.pXaXfXsXQ.T.I.I.I.I.I.I.I.I.I.P.J.D.A.H E J {  .U T $.<.r.7.[.9X[.1X+X#X",
"%X}.^.m.m.# 4 s.4.;.v g o.F.I.I.I.T.T.T.Y.Y.I.I.I.I.I.I.I.I.I.I.P.P.J.J.H.J.J.H.J.L.P.P.I.I.I.T.R.fXgXgXfXQ.T.I.I.I.I.I.I.I.I.U.H.C.o.X.G F J Y } U b :.,.i.kXkXu 6 9 (. X",
"%X#XoXoX}.% 1 n.4.<.v g O.A.I.I.I.I.I.I.I.I.I.I.I.I.I.I.I.I.I.I.I.I.I.I.P.I.I.P.P.I.I.I.I.I.I.T.pXgXVXBXfXQ.T.I.I.I.I.I.I.I.I.J.A.o./ / D F J Y } b b :.2.i.zXkX.   * m. X",
"*X*X*X*X*X% 4 1X0.5.m v ~ O.U.I.I.I.I.I.I.I.I.I.I.I.I.T.T.aXaXpXT.Y.I.I.I.I.I.I.I.I.I.I.I.I.I.R.aXgXBXaXpXY.I.I.I.I.I.I.I.J.F.! E D D D J P  .} ..v n >.5.i.vX9X+ # $ ^.$X",
"*X=X-X-X;X4 4 ;.2.6.$.v Q ) U.I.I.I.I.I.I.I.I.I.I.I.I.T.R.fXsXpXT.Y.I.I.I.I.I.I.I.I.I.I.I.I.I.R.pXfXfXpXQ.Y.I.I.I.I.I.I.I.H.C.E E K K P P { h.} Y n m ,.5.i.[.:.; t r /.$X",
"@X-XCXbXbXi 5 # k u.-.$.W ( H.P.I.I.I.I.I.I.I.I.I.I.I.Q.pXVXgXsXR.Y.I.I.I.I.I.I.I.I.I.I.I.I.I.T.R.R.Q.T.T.I.I.I.I.I.I.I.I.o.( J P } h.l.z.x.x.} U =.-.q.0.u.6 + e B @X@X@X",
"@XOX7Xg.g.3 3 # k i.<.-.L ~ C.J.I.I.I.I.I.I.I.I.I.I.I.pXaXVXgXsXR.I.I.I.I.I.I.I.I.I.I.I.I.I.I.Y.T.T.T.Y.Y.I.I.I.I.I.I.I.I.) ! P { l.x.c.c.x.h.T b -.>.0.0.a.-.@.: t N /. X",
"#X).g g g 3 3 o k p.,.:.g Q O.H.P.I.I.I.I.I.I.I.I.I.I.pXaXVXgXsXR.I.I.I.I.I.I.I.I.I.I.I.I.I.I.I.I.I.I.I.I.I.I.I.I.I.I.I.P./ ! P  .x.v.v.v.c.} T c <.,.0.a.s.>X8.+ + + m. X",
"*X(., = = 4 3 # k i.7.2.v b Q F.J.I.I.I.I.I.I.I.I.I.I.Q.pXfXsXpXT.I.I.I.I.I.I.I.I.I.I.I.I.I.I.I.I.I.I.I.I.P.I.I.I.I.I.I.P./ ! P } x.v.v.x.h.b m $.6.u.i.p.d.0.4.. X O ^.$X",
"*X(.y 5 5 3 4 s =.i.7.8.n b Q o.H.I.I.I.I.I.I.I.I.I.I.R.pXsXaXR.T.I.I.I.I.I.I.I.I.I.I.I.I.I.I.I.I.I.I.U.L.H.J.J.P.P.I.P.P./ ! P } x.v.v.h.} b m =.7.u.i.p.p.0.4.4 4 4 _.-X",
"oX+XxXlXlX: s FXnXd.>X>X-.m g ( o.P.P.I.I.I.I.I.I.I.I.T.T.T.T.Y.I.I.I.I.I.I.I.I.I.I.I.I.I.I.I.I.I.P.P.O.) E ! ! o.C.J.H.D.! G L { x.x.x.U b n :.2.0.0.p.y.r.y.i.,X,Xu.bXCX",
"oX+XxXzXzX: s DXnXq.u.u.<.=.v Q ~ J.P.Y.I.I.J.J.H.H.L.I.Y.Y.Y.Y.I.I.I.I.I.I.I.I.I.I.I.I.I.I.I.I.I.H.F.~ ~ Q Q ~ ~ / O.X.X.G D L { z.h. .b b =.>.5.0.a.p.i.y.1X1Xk k k 2XCX",
"XX+XxXzXzX: f GXnXw.u.u.1.;.l g R H.J.Y.P.P.A.C.O.C.F.P.I.I.I.I.I.I.I.I.I.I.I.I.I.I.I.I.I.I.I.I.I.C.O.R Q ` ` ` R E G G H D w P { l.} Y c m >.5.i.a.a.d.p.p.cXvX* * . {.CX",
"*X+Xa.d.d.<.2.kXkXd.a.a.0.2.-.v g / O.F.o./ Q E R E Q O.o.P.P.I.I.I.Y.I.J.A.o./ X.+.F.H.P.P.I.I.P.) ! ` | qXqXqX .{ P K J J J ..Y Y b b :.>.1.6.a.u.a.q.9.0.xXlX= = ; {.CX",
"=X+X1.1.w.7.0.0.a.d.a.a.0.5.;.n f ! ! o./ ! Q Q Q Q W ( ) H.L.I.I.I.Y.P.H.o.( _ _ O.o.F.H.J.I.P.H._ E ` | rXrXrXz. .Y P J L L { Y U b n 2.5.1.i.a.u.u.9.0.0.kX9X= , 3 {.CX",
"%X^.= - - q.1Xi.u.1X8.e.d.p.6.<.-.f s w d d | j.qX8X| Q R ! ) F.L.P.J.C.! R W ` ` Q Q R ! ! ) / ! K J qXeXNXuXuXyXyXc.x.l.} { g b n -.>.7.6.p.a.d.u.u.a.0.0.6 # q A bXmXCX",
"2X+Xc y ; @.-.u.>X1X7.8.i.i.6.,.<.n v g s s | j.tXeXqX| ` ~ ( ) C.A.o.) Q ` ` j.j.| ` ` ~ ~ ~ ! E Q ` eXeXuXuXuXyXv.c.z. .` Y v n =.>.1.7.7.p.i.i.1X1Xa.a.0.4 + y v `.bXmX",
"CXmXbXZ 5 ; 4 >X>X1Xs.a.y.i.a.6.6.>.-.z v f j.8XMXMXMXeX8X` Q J ! ^ E R W | 8XrXrXeXqX8X` ` Q Q W | j.yXyXuXyXyXv.v.x.h.{ T b $.-.>.9.p.a.a.s.8.e.zXzX1X1Xu.7 . y y y {.mX",
"CXCXmX=.3 5 5 u #.a.a.a.0.a.a.a.a.6.5.<.=.m C [ 8XeXhXrXrXqXj.` Q Q Q ` j.qXrXMXMXhXhXhXeXqX8X8Xj.eXeXyXyXyXv.c.l.h.Y U b =.=.>.2.9.p.a.a.a.a.u.i.s.s.s.a.d.;.$.: ; , {.CX",
"CXCXmX=.3 a 5 + k p.u.u.[.[.a.a.a.a.0.5.;.=.c b | qXrXhXhXtXqX| ` Q ` | qXrXMXMXMXMXMXMXhXrXeXeXeXyXyXyXyXv.c.x.} } U b v =.;.5.6.a.a.a.s.a.u.d.d.0.0.d.a.d.[.4.+ + o {.CX",
"&X&X|.B 5 8 5 o k u.1X1Xi.i.i.u.u.a.a.i.6.5.-.=.l b U | j.tXrXrXrXtXrXhXMXMXMXMXMXMXMXMXNXNXuXuXyXb.c.l.h...U g v n &.;.>.0.s.a.a.0.1X1Xa.a.9.p.f.u.u.u.i.f.cXcX1Xu.i.'.&X",
"&X|.~.S 5 5 5 b :.u.a.a.u.u.u.u.u.a.p.i.6.6.>.;.m n b ' g.8XqXqXeXeXtXrXhXhXMXhXhXhXuXuXuXyXeXc.c.z.l.} } Y b b n m ;.>.2.9.a.p.a.0.a.a.a.a.0.p.p.a.a.u.i.f.cXcXa.u.u.+X&X",
"*X(.4 y y # y SXnX1Xi.i.].].1X1X1X6.6.0.u.u.9.4.2.;.=.m n b [ [ | j.8XqXeXtXtXeXeXeXc.x.l.h.} { Y L L M b c m @.;.>.9.a.s.6.6.p.p.s.p.i.p.a.>Xa.s.s.s.d.u.i.zXcX6.0.1X+X#X",
"&X).$.-.-.7X0XvXkX0.i.i.a.a.a.a.7.i.i.d.a.i.a.a.6.5.,.:.:.=.Z Z T T [ [ ' g.g.' ' ' ' ' T T T b b b b $.=.:.>.2.,.5.a.a.p.p.p.u.i.i.i.d.u.a.[.a.s.i.i.p.a.>X=.c j j j _.@X",
"&X+Xq.9.p.DXAXi.p.n.t.t.d.p.i.6.6.i.p.d.i.i.i.u.a.i.6.5.5.-.=.n n n c v b b b b b b b b v c c c n $.$.*.<.8.0.s.6.6.s.a.i.p.p.i.i.r.i.d.i.u.[.s.s.r.t.9.1X,X4 = # # # m.XX",
"#X+Xs.0.9.AXAX>Xu.t.a.a.0.9.p.u.i.s.a.6.0.0.i.u.0.a.u.7.7.7.6.4.>.>.>.>.:.;.-.%.%.-.-.-.;.<.<.>.2.6.6.a.0.9.a.u.u.u.0.0.a.>X>Xa.a.0.9.6.6.6.p.p.i.1X1X0.p.p.4.>.* - = /.4X",
"#X+X>.>.>.nXnX>Xu.t.p.a.0.p.p.u.u.a.a.6.0.0.u.u.0.a.u.u.u.u.a.9.5.,.,.,.,.>.>.<.<.>.>.<.,.,.,.5.6.i.i.a.a.0.a.u.u.u.0.a.a.>X>Xa.a.0.9.6.6.i.p.i.i.1X1X0.p.p.0.5.  + - /.4X",
"&X~.# o o w.s.1X0.9.f.f.a.u.i.0.0.i.i.d.i.t.i.u.6.a.1Xa.a.s.a.p.i.i.s.a.u.0.0.>X>Xs.0.7.u.u.i.u.i.p.p.y.u.1X0.0.p.p.i.p.d.0.0.1X1Xi.a.s.i.i.d.p.9.0.0.s.p.6.>X8.& . . ^.oX",
"&X~., = ; 5.a.u.a.a.a.a.u.kXnX:.z k #.d.p.9.u.,XnXnXnX=.k k k k ,.p.p.a.a.0.9.1X1XkX>.k 5.1Xu.u.p.p.p.6.u.>Xa.a.p.p.y.i.p.0.0.1X1Xu.a.p.nXnXnX:.k 6.a.kX1X1X#.k : : ; ~.$X",
"#X~., = ; 8.u.t.i.u.1X1Xu.xXGXv = . 6 1X0.q.>XlXSXSXSXy o X X ; -.0.y.i.0.p.p.zXlXzX$.* 2.1Xu.u.a.p.p.q.0.>X1Xs.d.p.r.i.p.0.0.1X1Xu.i.i.DXDXDXA & 8.a.zXzXzX3 - y 5 3 (.4X",
"#X^.= X . t t 6 #.p.ZXAXAX0Xs 5 > 5 5 7 #.u.1X4.y i i 5 5 3 5 a t 4 4 4 t -.7.y y 4 5 5 4 4 7 k 0.zXcXzX4.4 -.>X0.0.>XkXcXxXkX7 7 7 :.[.nXnXnXZ , T g.g.g.g.U U U U [ :X.X",
"#X^.: : @ $ $ , k 1.AXAXAX7X- > < 8 5   @.5.1X2.: : 4 5 5 3 y f t % - = , &.].: = . : 5 ; . . j 0.kXkXlX:.- z 8.4.4.>XkXvXlX9X    ; $.4.cXcXcXc , U U T T [ [ [ Y ` ] :X.X",
"@X$X3X=X;X% # * + + >.0.d.%.3 5 5 y y y ; * 2.1XzXzXzX5 ; b A XX&XOX$ $ & @.d.1   # : y , # X j ,X9   - ; y : # * 4 [.z - = = q y y : + t.i.d.j + # # , : 5 U T [ `.'.&X4X",
"@X$X3X&XOX% # + + + <.0.a.%.3 > > B B B t X 2.1XlXzXzX7 ; b A $XoXoX$ $ # #.a.1 @ N N B N p X j >Xu   p S B N N u l [.z + o , B B B 4 + t.i.a.j + ; ; + : 5 T T `.`.OX*X*X",
"$X$X*X@XoX0 $ # # + <.7.u.%.4 e e %X@X&XN # 4.0.zXlXzX7 # g N.5X@XoX= = , $.q.1 r }.}.|.}./.= j ].u + _.}.3X4X4X_.).[.k   $ 0 XXoXOXu # t.i.1Xj O > ; . 2 3 [ ] OX&X$X$X$X",
"&X&X@XoXoX/./.~.m.m.OX+X+X).~.(.(.$X@X@X_.^.+X+X;X;X;X(.~.(.|.3X$X@X~.~.~.).'.~./.&X@X@X@X@X/._.+X_.^.|.|.=X3X3X X&X+X).*.~./. X X&X(.m.'.+X+X_.m./.~.^.~.(.:X:X$X$X*X*X*X",
"&X&X#XoXoX*X=X&X X X4X4X X X@X*X=X$X$X@X@X#X#X#X&X&X&X*X*X@X$X3X$X$X#X&X@XoX&X@X@X#X#X%X%X%X*X*X#XoX&X|.|.#X$X3X*X*X#X@XoX&X*X X.X*X.X X#X#X#X@XXX$X$X%X*X=X X.X3X3X*X*X*X"
};
