/* XPM */
static char *_[] = {
/* columns rows colors chars-per-pixel */
"85 85 247 2 ",
"   c #0C3A16",
".  c #17391A",
"X  c #08300C",
"o  c #243A1D",
"O  c #1A3A29",
"+  c #163A27",
"@  c #0A3836",
"#  c #0E3A2B",
"$  c #2A3A2C",
"%  c #041B0C",
"&  c #17451A",
"*  c #134911",
"=  c #26441E",
"-  c #184828",
";  c #194837",
":  c #1C5338",
">  c #11492B",
",  c #274829",
"<  c #344B2C",
"1  c #275729",
"2  c #264837",
"3  c #295938",
"4  c #365837",
"5  c #33542F",
"6  c #366537",
"7  c #2F6737",
"8  c #52543B",
"9  c #69563C",
"0  c #70573F",
"q  c #45623E",
"w  c #223E4A",
"e  c #184846",
"r  c #1D5549",
"t  c #274B47",
"y  c #275748",
"u  c #355A46",
"i  c #275954",
"p  c #365A54",
"a  c #334B4B",
"s  c #386746",
"d  c #2D665B",
"f  c #386656",
"g  c #336A4D",
"h  c #396D6C",
"j  c #2D5E63",
"k  c #515B42",
"l  c #765D42",
"z  c #665E42",
"x  c #476947",
"c  c #576747",
"v  c #48774A",
"b  c #496957",
"n  c #497756",
"m  c #597A55",
"M  c #59744E",
"N  c #666847",
"B  c #786849",
"V  c #66754E",
"C  c #677A55",
"Z  c #787852",
"A  c #78724F",
"S  c #4A7669",
"D  c #547769",
"F  c #487876",
"G  c #587A75",
"H  c #476C6E",
"J  c #657B6F",
"K  c #413326",
"L  c #85694B",
"P  c #8B6C4D",
"I  c #836649",
"U  c #88714F",
"Y  c #897954",
"T  c #937352",
"R  c #997655",
"E  c #9B7956",
"W  c #9A7C58",
"Q  c #8F6F50",
"!  c #A27E5A",
"~  c #3E8B49",
"^  c #4C8457",
"/  c #578858",
"(  c #59965B",
")  c #4B8C4E",
"_  c #668759",
"`  c #66945D",
"'  c #76855A",
"]  c #59A85A",
"[  c #578868",
"{  c #5C9863",
"}  c #588578",
"|  c #4D8676",
" . c #669B69",
".. c #669866",
"X. c #688978",
"o. c #689878",
"O. c #779677",
"+. c #6E8B6A",
"@. c #5BA967",
"#. c #5CB66F",
"$. c #65A56A",
"%. c #68A96A",
"&. c #72A66C",
"*. c #69B56A",
"=. c #68B86B",
"-. c #74B96D",
";. c #6BAB73",
":. c #6AA777",
">. c #76AA79",
",. c #78AB77",
"<. c #64B472",
"1. c #6AB575",
"2. c #6BBC74",
"3. c #68BC78",
"4. c #73B374",
"5. c #74BA74",
"6. c #7CB27C",
"7. c #76B979",
"8. c #7ABC7B",
"9. c #77B778",
"0. c #65A95C",
"q. c #6EC575",
"w. c #67C678",
"e. c #6CC57B",
"r. c #6AC77B",
"t. c #73C474",
"y. c #7BC276",
"u. c #74C37A",
"i. c #79C779",
"p. c #71C36E",
"a. c #86855B",
"s. c #99845C",
"d. c #A5825C",
"f. c #AB845E",
"g. c #A6885F",
"h. c #8B9370",
"j. c #AC8A61",
"k. c #A98960",
"l. c #B48C63",
"z. c #B88E65",
"x. c #BA9166",
"c. c #BD9468",
"v. c #B69467",
"b. c #AC9265",
"n. c #84B77C",
"m. c #83AA7D",
"M. c #C1966A",
"N. c #C49A6C",
"B. c #CB9D6F",
"V. c #CD9E70",
"C. c #CEA171",
"Z. c #D3A573",
"A. c #DAAA77",
"S. c #DDAD79",
"D. c #D7A876",
"F. c #CCA06F",
"G. c #E1AF7A",
"H. c #E5B37D",
"J. c #E9B67E",
"K. c #EBB87F",
"L. c #82C87B",
"P. c #3E7D86",
"I. c #567A85",
"U. c #487A82",
"Y. c #657E8A",
"T. c #498787",
"R. c #578989",
"E. c #579488",
"W. c #4B8C95",
"Q. c #579697",
"!. c #558D95",
"~. c #689985",
"^. c #759886",
"/. c #688B98",
"(. c #699A98",
"). c #659998",
"_. c #708F90",
"`. c #78A788",
"'. c #7CBB84",
"]. c #7BB685",
"[. c #67A299",
"{. c #7AA997",
"}. c #76AE8F",
"|. c #5A9CA5",
" X c #579DA7",
".X c #499EA8",
"XX c #6A9BA4",
"oX c #7596A5",
"OX c #7C8EA1",
"+X c #5AA2A9",
"@X c #56A6B4",
"#X c #5BA9B8",
"$X c #4AA5B2",
"%X c #66A6A9",
"&X c #67A5A8",
"*X c #79A5A9",
"=X c #78B5A6",
"-X c #67AAB3",
";X c #76A8B2",
":X c #6DC982",
">X c #7AC584",
",X c #78C885",
"<X c #77D389",
"1X c #64B2C6",
"2X c #3D8B8B",
"3X c #84A788",
"4X c #85B684",
"5X c #86BA87",
"6X c #87A895",
"7X c #88B798",
"8X c #95B791",
"9X c #8393AA",
"0X c #85AAB6",
"qX c #8AB5AB",
"wX c #95AF95",
"eX c #ECB980",
"rX c #E6B580",
"tX c #83C484",
"yX c #83CB84",
"uX c #84C38C",
"iX c #89C589",
"pX c #8ACA8B",
"aX c #8AD58B",
"sX c #84D288",
"dX c #8BCA94",
"fX c #8AC694",
"gX c #94CA95",
"hX c #96C797",
"jX c #96D59B",
"kX c #8ED291",
"lX c #A2CD9E",
"zX c #90E395",
"xX c #97C7A6",
"cX c #9AD6A5",
"vX c #90CAB1",
"bX c #A6D9A8",
"nX c #A9D5B6",
"mX c #A8CEAE",
"MX c #B0E7B3",
"NX c #A0E69E",
"BX c #93B8C6",
"VX c #97C8C9",
"CX c #A7D3D3",
"ZX c #B7EAC5",
"AX c #B9E6E9",
"SX c #C8F5CE",
"DX c #DCF9EB",
/* pixels */
"%X&XQ.XXXX(.(.(.(.(.6X6XX.^.6X^.X.O.O.3X^.o.~.~.}.^.~.OX9X9X9X9X9X9XoXoXoX0XBX/./.9X0XBXoX/.I.!.XX0XBXXXXXXX;X0XI.!.0XoXoXoXoX0XXXU.XX;X*XXX!.).XX1X1X|.|.|.-X-XW.Q.%X X|.",
"%X&XQ.XXXXR.R.G G } ^.3X^.O.X.D D O.O.O...D ~.^.7X6X`.OXOX9X9X9X_./.R.Y.I.oX0XI.I.Y./.oXI.I.I.!.XX(./.!.).;X/.R.F I.0X/.I.I.I.*X/.F R.!.*X&XQ.!.R.W.W.U.W. X-X-XW.Q.%X+X X",
"%X&XXX(.(.d y # O 2 X.^.wX+.5 , , [ [ [ s 2 X.`.ZXnXqX_.Y._._.oXH p p a w H Y.a w w i h r r I./.;Xi @ j U.VXf % y h (.H # # @ /.I.h i e 0X0X*Xh e @ @ e h W.BXVX|.|.+X+X+X",
"%X&XQ.).(.y ; # + O X.6XxXX., x m m x , 3 4 o.`.xXxXxXG H G _._.p 2 a a 2 D _.a t O p F e ; i F *Xi @ d h h t # y d ^.S u ; ; H d e r t *XqX0Xh @ e e ; i h &X-XQ.Q.W.+X%X",
"%X&XQ.).(.t ; # + O O.6XlXO., C X.x 5 X , s o.^.{.7XxXn u D G _.a O a t 2 } {.f u O p } ; # > f {.d > d y # ; ; u f ~.[ f 2 2 u 2 # ; y {.qXVXh @ r r > r d T.Q.E.!.T.|.%X",
"AXVX).(.(.} } {.{.^.nXSXSX`.. 5 4 . O , [ }.`.o.3 : : O O 5 4 u , O , , - s / 3 - > ; 3 - - X s fXfXdXCX}.- { dX{ { '.fXhX].:.s 3 - [ `.7XxXZX[ > {.=X~.^ y y r r y i T.Q.",
"AXVXR.R.R.S } 7X6X3XnXZXZX6Xu 5 5 . , 4 ..5X].>.v s s - . 5 5 5 3 3 4 4 3 n ..s 7 7 3 1 3 3 & v fXdXdXMX'.3 :.jX$.$.uXgXcX5X9.v s 7  .}.xXmXZX[   =XfX}.[ g 3 : > ; i U.Q.",
"CX*Xr ; # t f `.`.O.6X7X4XmXDXm & & 6 &. . .hXbXDXSXZX6 & 1 1 = / >.&.,.4XhXhX5XfXcX( * %.,X3.9.,X<.@.,X3.( 1.uX8.8.aXsXyX8.9.9.4.%.8.iXSXSXZXn X :.'.jX'.;.6 1 X X @ h P.",
"VX*Xi : ; S } 7X7X3X5X5X5XlXSXv . 1 v iX6.>.'.fXSXMXMX6 * & & . ` '.&.,.pXpXpXpXpXjX) X %.,X,X,Xu.*.%.sXyX,Xi.8.i.i.yXi.5.5.5.i.i.5.8.tXMXMXMX/ . $.8.gXiX4X( )   > e h T.",
"vX{.d y : ^.{.xXxX8X5X4X8XhXbX6 X 7 / bXgX5X;.9.bXbXbX7 * * * X ..iX&.,.kXsXL.aXaXaX) X %.,XkXsXt.=.=.aXjXMXyX=.t.i.y.-.=.=.=.L.L.yX8.9.NXMXMX` 1 $.4.pXgXjX8.&.- : i U.W.",
"~.} y : > ~.`.>.5XhX6.,.6.5XhXn.,.{ $.6.4XtX%.%.4.pXNX8.&.*.0.) yXNX4.6.8.7.-.*.-.zX=.) i.sX3.=.=.t.t.=.=.=.t.y.t.p.=.p.t.y.y.=.p.t.y.i.y.yXjX8.$.n.tXn.iXgXbXbX .o.E.Q.&X",
"} S y ; > o.:. .].hX,.&.6.4XhXgXgX%.;.;.8.tX%.%.%.tXNXpXtXL.-.0.aXNX4.5.5.7.-.0.*.aXt.0.i.sX*.=.=.t.i.=.*.0.-.L.p.p.=.q.t.L.L.=.=.p.t.i.-.y.aXL.5.tXtXn.5XgXMXMX6.`.[.&X%X",
"o.[ s + % 6 6 - / gX5X4XiX8.%.y.L.yXi.9.4.%.tXyXiX4.$.4.7.y.7.4.7.y.4.4.-.L.kXy.t.=.i.zX3.*.0.=.<XsXaX=.=.q.*.0.p.p.p.t.t.t.t.p.t.t.t.t.aX,X$.=.4.L.L.n.n.n.bXMXgXxXvX=X%X",
"o.o.[ n x ^ / [ >.gX4X4XtX8.4.y.L.L.i.7.4.4.i.,XtX9.=.5.9.y.t.5.y.y.5.5.5.i.sXy.t.=.5.i.$.( ( @.1.u.i.=.q.q.=.*.p.t.t.t.t.t.t.t.t.t.t.t.yXi.%.4.7.8.n.n.n.4X&. .&.:.~.).&X",
"~.`.7XxXxX'.fXZXbXiX8.9.9.7.y.y.y.y.y.y.y.y.u.u.u.u.u.u.u.u.u.u.u.u.u.u.u.u.u.u.t.=.$.( v v v v / %.=.q.q.q.t.t.t.t.q.q.q.q.q.q.q.q.t.t.u.9.5.i.yX6.6.n.4X8X= X 6 y r T.Q.",
"`.`.}.`.o.bXbXMXbXkX%.$.yXL.y.t.t.y.y.y.y.u.u.u.u.u.u.u.u.u.u.u.u.u.9.9.1.$.{ ^ / V Z Y B N A A A V V ^ / ( %.3.t.t.q.q.q.q.q.q.q.e.e.e.,X,XL.tXyX4X4X4X5XgX4 , x s d T.+X",
"`.`.}.o.[ nXMXMXbXjX$.{ aXyXy.t.t.y.y.y.u.u.u.u.u.u.u.u.u.u.u.u.u.u.8.4.;.{ ^ x x N B T I B Q P L N 8 x v ^ $.1.t.t.q.q.q.q.q.q.e.e.e.e.<X<XyXyXiX4X4X4XiXgXq < x b h Q.+X",
"o.[ n 3 - o.6.dXdXdX$.{ aXyXt.t.t.t.t.t.t.t.u.u.u.u.u.9.9.1.<.$./ m c c N L R M.B.H.H.H.d.T f.z.V.N.N.f.! I l 8 x v ( $.1.e.e.e.e.:X:X:X:X,X,X3.1.fXuX>.6.4Xn x 2 f | ).%X",
"o.[ v 3 - /  .uX>X>X%.%.yXi.t.t.t.t.t.t.t.t.u.u.5.5.4.;.&.$. ...' ' Z Y Y d.l.C.Z.H.H.H.d.T f.z.V.B.N.l.f.R U B V V _ `  .%.<.3.3.e.e.e.3.:X,X3.1.dXfX>.6.4Xm x - y F Q.[.",
"o.[ s 3 3 - 7 ;.1.1.,X,X1.3.q.q.q.q.q.q.t.t.q.q.%.$. ._ _ V Z Y d.j.C.Z.H.J.J.J.J.J.J.H.d.T f.z.V.V.V.B.V.V.N.M.f.! P B N m m { @.<.<.1.<.<.:X1.;.cXhX6.>.>./ v   > d | E.",
"}.o.x s 4 3 s 9.9.9.,X,X=.3.q.e.e.e.e.3.*.*.@...` ' ' a.s.b.v.N.C.Z.S.H.J.J.H.J.J.J.J.H.d.T f.z.V.V.V.V.V.B.B.B.M.v.l.d.s.Y Y ' ' ` ..{ { @.1.;.;.jXjX].].4X../ 1 3 y | E.",
"7X`.b s s s n '.'.'.sXsX*.=.q.e.e.e.e.1.@.@./ / C Z Y j.l.Z.A.H.J.J.rXH.J.H.H.J.J.J.J.H.d.T f.z.V.V.V.V.V.B.B.B.V.V.B.N.c.f.! Y Z V m m ^ ( ;.;.;.jXjX'.4X4X ...6 6 y | E.",
"^.[ - -   `.].,XuXfX3.3.<X,Xe.3.3.( ( / C Z s.j.N.C.A.S.H.H.J.J.H.rXH.H.H.J.J.J.J.J.J.H.d.T d.l.V.V.V.B.B.B.B.B.B.B.B.B.B.B.B.N.M.c.j.k.B N q x n ,X,X;.6.4X . .`.~.~.=XvX",
"^.D - -   ].7X,XuXfX3.#.<Xe.3.%.$.` _ ' a.a.v.c.Z.A.H.H.H.J.J.J.H.rXH.H.H.J.J.J.J.J.H.H.! T d.l.V.V.V.B.B.B.B.B.B.B.B.B.B.V.V.B.N.c.f.d.B N 8 M m 1.9.;.6.4X....}.}.`.vXvX",
"^.D ; - - 7XxX'.'.'.<.<.:X<.^ M c Y s.N.Z.S.J.J.J.J.J.H.H.H.H.J.J.J.H.H.H.J.J.J.J.J.H.S.E P d.l.B.B.B.B.B.B.B.B.B.B.B.V.V.V.V.B.c.f.L l l I E U B { { %.4.n.v v gXxXvXCXZX",
"xX6Xb n ^ 7XfXuX'.9.3.3.( ^ s N B j.v.Z.S.H.J.J.J.J.J.J.H.H.J.J.J.J.H.H.H.H.J.J.J.J.H.S.E P d.l.B.B.B.B.B.B.B.B.B.B.B.B.B.v.l.E T T T T l.l.N.l.k.V _ %.4.n.6 7 hXxXvXvXvX",
"SXnX^.6X7X7X7XdX'.:.,X,X6 5 $ l Q C.D.H.J.J.J.J.J.J.J.J.J.J.J.J.J.J.H.H.H.H.H.J.J.J.G.A.E P d.l.B.B.B.B.B.B.B.B.B.B.B.N.M.f.E 9 0 l ! l.J.J.eXG.D.B V ;.,.n.1 & 8XxXvX=X=X",
"CXqXb s 3 o.`.cXuX9.( / Y s.l.! R T T E f.l.B.C.S.H.H.J.J.J.J.J.J.J.J.J.J.J.J.J.J.H.S.Z.T P f.l.B.B.B.B.B.B.N.M.l.f.E T P P T f.v.Z.S.H.K.eXeXJ.J.v.g.c _ $.5 = 4 s h !.Q.",
"CX0Xf 2 > } :.jXuX9./ M s.v.Z.l.! P P T E d.c.N.Z.A.S.H.H.J.J.J.J.J.J.J.J.J.J.J.J.H.S.Z.T P f.z.B.B.B.B.B.N.M.v.f.! T P L T R N.Z.J.K.eXeXeXeXeXeXC.v.N V ..5 , 2 u i T.Q.",
"CX0XR.h r ^ / ;.;.&.a.W S.H.K.K.eXH.S.N.l.d.T T T E d.v.N.S.H.J.J.J.J.J.J.J.J.J.H.G.Z.B.T P f.z.V.N.N.l.f.R T P P T d.v.C.H.J.eXeXeXeXeXeXeXeXeXeXeXH.c.s.Z c k D H d T.Q.",
"CXVX(.H y ^ / { ..+.s.j.H.H.K.K.eXJ.H.Z.B.N.l.j.d.d.f.f.l.c.N.Z.A.S.J.J.J.J.J.J.H.A.Z.B.T L f.l.M.l.f.! ! E ! ! f.l.N.C.A.H.K.eXeXeXeXeXeXeXeXeXeXeXH.C.v.s.N k b b h Q.+X",
"AXCXqXF y [ / v V Z c.Z.H.J.J.K.eXeXeXeXeXeXS.A.N.v.j.T T Q E f.N.C.H.H.J.J.J.H.H.Z.B.N.T L ! d.f.Q I L P ! l.M.A.G.eXeXeXeXeXeXeXeXeXeXeXeXeXeXeXeXeXeXA.N.B 9 < s } &X-X",
"BX0XR.d 2 o.o.V a.j.A.H.J.J.J.K.eXeXeXeXeXeXJ.H.H.S.D.B.N.l.f.! R T ! f.c.Z.S.S.A.V.B.N.P l l I P E d.M.N.Z.A.S.H.H.eXeXeXeXeXeXeXeXeXeXeXeXeXeXeXeXeXeXH.S.E L $ a F |.-X",
"0XoXH i ; ~.O.C s.N.H.eXJ.J.J.K.eXeXeXeXeXeXeXeXeXK.J.S.S.N.l.E L B I Q f.N.D.A.Z.B.B.N.L l 9 0 B d.l.A.S.H.J.J.J.J.eXeXeXeXeXeXeXeXeXeXeXeXeXeXeXeXeXeXJ.H.f.T $ a H |.-X",
"I.F i i r c V v.Z.eXeXeXeXeXeXeXeXeXeXeXeXeXeXeXeXeXeXeXeXeXeXeXJ.J.M.l.Q l 9 l I ! T I 9 0 f.N.J.K.eXeXeXeXeXeXK.K.eXeXeXeXeXeXeXeXeXeXeXeXeXeXeXeXJ.S.j.B < o   + r F !.",
"/.R.H d y V U B.A.eXeXeXeXeXeXeXeXeXeXeXeXeXeXeXeXeXeXeXeXeXeXeXK.J.C.N.f.R P L L I I B L P c.Z.J.K.eXeXeXeXeXeXK.K.eXeXeXeXeXeXeXeXeXeXeXeXeXK.K.S.Z.v.s.Z < o . ; y F Q.",
"BX0X*XX.b s.l.eXeXeXeXeXeXeXeXeXeXeXeXeXeXeXK.K.eXeXeXeXeXeXeXeXeXeXeXeXeXH.S.l.T K 8 9 N.A.eXeXeXeXeXeXeXeXeXeXeXeXeXeXeXeXeXeXeXeXeXeXeXeXK.J.H.v.d.k M [ 4 < 5 3 i T.Q.",
"/.I.f M A N.Z.eXeXeXeXeXeXeXeXeXeXeXeXeXeXeXeXeXeXeXeXeXeXeXeXeXeXeXeXeXeXJ.H.j.T $ 8 9 v.C.eXeXeXeXeXeXeXeXeXeXeXeXeXeXeXeXeXeXeXeXeXeXJ.H.A.N.l.B Z ..3XhX+.m +.D H Q.%X",
"U.h O z Q H.eXeXeXeXeXeXeXeXeXeXeXeXeXeXeXeXeXeXeXeXeXeXeXeXeXeXeXeXeXeXeXeXeXj.Y $ 8 9 l.B.eXeXeXeXeXeXeXeXeXeXeXeXeXeXeXeXeXeXeXeXeXeXJ.G.B.f.T 8 M '.hXMX3XO.6X^.D ).-X",
"0XR.# 8 0 j.c.S.H.eXeXeXJ.J.H.K.eXeXeXeXeXeXeXeXeXeXeXeXeXeXeXeXeXeXeXeXeXZ.N.B 0 9 9 l T E S.H.eXeXeXeXeXeXeXeXeXeXeXeXeXeXeXeXeXeXH.S.l.f.T R E c M ;.>.6.4 , 2 u h T.Q.",
"0X/.t k 9 Y E N.Z.S.H.J.J.J.H.J.eXeXeXeXeXeXeXeXeXeXeXeXeXeXeXeXeXeXeXeXJ.B.l.B l 0 l B P T Z.S.eXeXeXeXeXeXeXeXeXeXeXeXeXeXeXeXJ.H.Z.B.d.! E ! d.N M 9.;.&.4 o O 2 d T.!.",
"/./.(.S u $ $ 9 Q j.Z.S.eXK.J.J.J.eXeXeXeXeXeXeXeXeXeXeXeXeXeXeXeXeXeXJ.S.d.B d.! I P R P P l.B.eXeXeXeXeXeXeXeXeXeXeXeXeXeXeXeXA.c.T B T ! B.Z.D.N V dX6. .6 5 , 2 e h !.",
"BX0XR.H d , 5 ' ' a.s.d.N.C.S.H.K.eXeXeXeXeXeXeXeXeXeXeXeXeXeXeXeXeXeXS.M.E I z.l.I T ! E E T l.J.eXeXeXeXeXeXeXeXeXeXeXeXH.H.c.l.E E ! v.N.A.A.A.N V pX4X6.q < 2 u h Q.|.",
"AXVXI.H h - 3 '. .m c z E l.Z.H.eXeXeXeXeXeXeXeXeXeXeXeXeXeXeXeXeXeXeXZ.! T P B.M.L R f.l.j.l ! H.K.eXeXeXeXeXeXeXeXeXeXeXG.Z.T P l f.M.H.H.H.S.S.N V iXiX8Xq < 4 n [.%X-X",
"BXoXe e t   1 jX'.%.( / 8 z B T E N.B.S.H.J.eXeXeXeXeXeXeXeXeXeXeXeXZ.c.P E f.Z.B.T ! f.B.B.L T d.Z.J.eXeXeXeXeXeXeXH.Z.N.E T E f.B.A.H.H.H.H.G.S.V V 8.4X5X2 . O u } ).-X",
"BXXXe e t & 1 cXyX=.( ( 8 8 l I L l.c.C.A.H.H.J.eXeXeXeXeXeXeXeXeXeXB.l.L ! l.Z.V.E ! f.C.Z.T T T B.H.eXeXeXeXeXJ.H.S.B.l.P L ! v.S.H.J.H.H.H.H.S.B V 9.6.4X2 . O y | Q.%X",
"DXAXBXqX=X[ o.jXaXyX$.( 9 Q N.f.! I I I T E M.B.H.J.eXeXeXeXeXeXJ.H.E E R z.B.S.Z.d.d.d.Z.S.B.f.l R d.J.J.eXJ.J.Z.N.R P I l.M.H.H.J.H.H.H.H.J.H.G.B V ;.6.4Xx 5 , 3 d T.Q.",
"qX0X!.R.E.g ^ uXyXyX%.` z T C.c.l.! E T R E f.l.B.Z.H.J.K.eXeXeXS.A.T R f.M.Z.H.A.f.d.d.Z.H.Z.v.T T T D.S.H.A.Z.l.f.R E ! N.Z.H.J.J.J.H.H.H.J.H.G.B V 9.4X5X+.m u f F Q.|.",
"H j e y y - 3 %.9.yX=.%.N s.A.Z.Z.B.N.l.! R L P E l.C.H.J.eXeXeXZ.N.I T c.C.A.J.S.f.d.! A.H.G.Z.M.P l c.N.S.c.f.P P R l.Z.H.H.J.J.J.J.J.H.H.H.H.G.U Z iXiX8X8XwXD } (.&X-X",
"0XXXj H S > 3 uX5.*.@.] z W H.S.S.Z.Z.B.M.c.j.f.R R E l.c.J.J.eXl.E T d.C.A.H.J.S.f.! E A.J.H.H.A.l.! T T E T T f.l.B.Z.H.H.H.J.J.J.J.J.H.H.H.H.H.U Z 5X4Xm.lXlXb S H Q.|.",
"CX0XH G } > 3 dX5.0.0.] z s.H.H.G.A.D.Z.Z.V.c.l.R Q I E f.H.J.eXf.P E j.D.G.H.J.S.f.! E A.J.J.J.H.N.l.B B B L P l.M.S.H.J.H.H.J.J.J.J.J.H.H.H.H.H.U Z 5X].6.mXmXb b h T.Q.",
"0X;X/._.(.3 3 %.4.9.y.7.N s.H.J.J.H.H.G.S.D.V.V.B.M.v.Q I B P d.I l V.Z.S.H.J.J.S.f.! E A.J.J.J.J.H.G.l.j.! M.Z.H.H.H.H.H.H.H.H.H.J.J.J.J.J.J.H.H.U Z  . . .h.+.O + @ h T.",
";X0X0XqX{.3 3 ) $.8.5.4.N s.H.H.J.H.H.H.S.S.Z.Z.V.N.c.! R L P T P P Z.Z.G.H.J.J.S.f.! E A.J.J.J.J.H.H.N.M.l.B.A.H.H.H.H.H.H.H.H.H.J.J.J.J.J.J.J.H.U A .. .$.O.+.+ ; i T.Q.",
"/.0XDXCXvXx 3 X ) yX4.$.8 W H.H.H.H.H.J.H.H.S.S.Z.Z.V.B.N.R I 9 E l.A.S.H.J.J.J.S.j.d.E D.H.rXH.J.J.J.J.J.H.H.H.J.J.H.H.H.H.H.H.H.J.J.J.J.J.J.J.J.Y A ( %.9...m   s [.-X-X",
"{.{.6X^.~.4 , & v 6.4.&.z Y G.H.H.J.J.J.J.J.H.H.S.A.Z.Z.V.z.j.! v.B.S.G.H.H.H.J.S.l.d.R D.H.H.J.J.J.J.H.H.H.H.H.H.H.H.H.H.J.J.J.J.J.J.H.H.J.J.J.J.T A / %.pX6.$.X > d Q.-X",
"6X^.b D D , , , n >.9.;.k Y S.H.rXJ.J.J.J.J.J.J.H.H.S.Z.Z.V.B.N.C.Z.G.H.H.H.H.J.S.l.d.R D.H.H.J.J.J.J.H.H.H.H.H.H.H.H.H.H.J.J.J.J.J.H.H.H.H.J.J.J.W A ) 4.jXpX8.X   > T.%X",
"6XX.2 2 O a a , / hX5Xm.z Y A.H.H.J.J.J.J.J.J.J.J.J.J.G.S.Z.Z.V.Z.A.H.H.J.J.J.J.S.v.d.T Z.H.J.J.J.J.J.H.H.H.H.H.H.H.J.J.J.J.J.J.J.H.J.J.J.H.S.B.c.B V 4.4.8.( / v s : | [.",
"6XX.u a 4 3 u x o.gX5Xm.z Y D.H.H.J.J.J.J.J.J.J.J.J.J.H.H.A.Z.Z.A.S.H.H.J.J.J.J.S.v.d.T Z.H.J.J.J.J.J.H.H.H.H.H.H.H.J.J.J.J.J.J.J.H.J.J.S.A.C.v.j.V C 8.8.8.( / / n y E.=X",
"wXwXqX7X6X- 4 SXMXgX8.;.c Y V.G.J.J.J.J.H.H.H.H.J.J.J.J.J.H.H.S.H.H.J.J.J.J.J.J.S.v.d.T Z.H.J.J.J.J.J.J.J.J.J.J.J.J.J.J.J.J.J.J.J.J.H.H.v.j.Y Z V ( $.yX4Xn. ...;.:.~.CXAX",
"^.6XnXmXmX& 3 SXbX4X%.$.M A E v.B.H.H.J.H.H.H.H.J.J.H.J.J.H.H.H.H.J.J.J.J.J.J.J.S.v.d.T Z.H.J.J.J.J.J.J.J.J.J.J.J.J.J.J.J.J.J.J.G.Z.c.j.a.a.' `  .$.&.4.tXgX5Xn.v n f qXCX",
"D ^.ZXSXSX. 1 SXjX&.( ( M c z W f.A.S.J.H.H.H.H.H.H.H.J.J.J.J.J.J.J.J.J.J.J.J.J.G.c.f.T Z.H.J.J.J.J.J.J.J.J.J.J.J.J.J.J.J.J.J.H.D.v.Y B m / ( %.9.n.,.$.tXbXbXhX1 1 - `.vX",
"o.^.8X7X7XhXhX'.gXbXjXkX4.&. ._ M A Y v.C.S.H.H.H.H.J.J.J.J.J.J.J.J.J.J.J.J.J.J.H.M.f.T Z.H.J.J.J.J.J.H.H.J.J.J.J.J.H.H.G.B.M.Y Z V _  .tX8.%.8.tXtXn. .].hXhX4XX & - :.dX",
"^.^.`.O.o.bXbX;.pXMXNXjXy.5.%./ v N A s.c.C.S.H.H.H.J.J.J.J.J.J.J.J.J.J.J.J.J.J.H.M.f.T Z.H.J.J.J.J.J.H.H.J.J.J.J.H.H.S.D.c.j.B V v ..%.sX,X%.8.iXiX4X .6.hX4X,.X & 3 :.dX",
"`.o.s . X >.]. .6.iX8.5.5.7.y.t.t.$.( ) / C d.j.N.Z.S.H.J.J.J.J.J.J.J.J.J.J.J.J.H.M.f.Q Z.H.J.J.J.J.J.J.J.J.H.H.A.Z.v.s.Z M m  .%.t.u.u.1.9.yXi.7.n.n.gX,.` 6 1 7 / 5XMXSX",
"xX6X[ 3   /  .6.6.tX7.5.i.i.y.t.t.=.%.] ` _ a.a.s.b.N.Z.A.H.H.J.J.J.J.J.J.J.J.J.H.N.f.P C.G.J.J.J.J.J.J.H.H.A.Z.v.b.s.a.' _ ( %.1.t.u.u.1.9.,X8.9.n.5XgX,.` 6 1 6 v o.cXMX",
"ZXMXxXn - 7 v hXtX5.4.-.aXyXt.t.t.q.q.q.*.@./ ^ V Z s.v.M.H.H.J.J.J.J.J.J.J.J.J.H.B.f.P C.S.J.J.J.J.J.J.H.A.N.l.Y Z M / { <.3.t.t.t.u.u.1.3.,X8.9.4X5XgX6.` 6 1 6 s f '.cX",
"nXnXMX[ 1 6 6 6 / ;.i.i.4.5.t.t.t.t.t.q.q.3.*.*.$.` ` ' a.d.v.B.A.H.J.J.J.J.J.J.H.B.f.P B.S.J.J.J.H.H.N.c.s.a.' ` ..$.%.=.q.q.q.q.q.e.e.sX,X<.9.,XuXuX6.n.n.&...& - ; `.cX",
"nXnXZX..1 6 3 X 6 ;.,XtX$.=.t.t.t.t.t.q.q.q.q.q.=.$.( V V Y s.c.Z.G.J.J.J.J.J.J.H.B.f.P B.A.J.J.J.H.S.v.k.Z _ _ @.@.3.3.q.q.q.q.q.q.e.e.kX,X@.3.,XdXuX&.n.gX5X6.X   > `.xX",
"`.`.`.[ f     1 v { 5.i.aXsXt.=.=.<X<Xi.*.0.q.i.aX<Xw.e.q.( / M V B c.B.H.J.J.J.H.F.f.P B.A.J.A.N.Y B m ^ ( @.1.w.e.e.e.:Xe.e.w.w.w.e.:X#.3.,XsXkX@.@.{ 4.iXgXhX7XfXdX=X=X",
"`.:.[ g s & - / ..;.8.i.t.u.i.t.t.e.q.=.=.=.q.t.t.e.e.e.q.@.{ .._ C s.k.N.Z.A.H.H.C.f.P N.Z.Z.c.s.Z V / ( %.*.<.w.w.e.e.e.e.e.e.e.e.:X:Xw.w.,X,X,X<.<.;.'.dXfXfX7X7X'.=X=X",
"`.[ > - - - g SXMXgXiXtX) $.yXaXkX0.0.0.i.zXu.3.~ @.,Xe.w.w.:X<X<.@.x c B d.c.H.H.C.j.Q N.B.E Z x ) ~ ] =.zXe.#.w.w.w.w.w.w.w.:X,X<X:X:X<X:X<.<.1.,X,XcXcXcXfX5X7X}.[.=X=X",
"o.o.o.`.`.}.5XcXhXiX4X8.&.8.yX4.%.=.5.sXyX<X,Xi.i.u.3.3.3.:X<X<X3.#.( ( / C Z s.g.j.T B Y Y c _ %.<.#.#.w.<X<X<X3.#.#.w.<X:X:X#.w.w.:X<XsX<Xw.<.@.,X,XdXuX'.{ / n n F E.[.",
"o.}.nXZXZXZXMX5X5X5X8.8.iXiXiX( ) 9.tXNXaXu.yXaXNXsX1.<.#.<X<X<X3.#.#.@.( v x B B E L z N N 6 ( <X<X<Xw.e.e.sXzX#.#.#.w.<X<X<X#.#.#.:X<XkXsXe.*.@.,X,XuX6.;.v 6 - : d T.Q.",
"} ~.7X{.`.ZXnX/ >.hX6.6.jXgXiXjXjXyX8...$.%.%.%.%.9.,X%.@.,X,X3.3.<.<X,X,X,X'.1.$.n n ^ $.;.@.*.e.<X<XaX,X@.e.<X3.<.*.q.e.:X:X<.<.<.e.:X@.3.<X,X].fXfX5XuXfX ./ : ; @ h W.",
"~.~.^.o.} nXcX .`.fX6.>.gXpXtXjXbXtX8.$.%.4.;.;.$.9.>X1.1.,X,X1.3.9.<X,X,X,X,X1.;.[ / ^ 1.9.1.3.e.e.e.kX,X%.3.u.3.3.3.3.q.e.e.3.3.9.e.:X%.3.sX,X].fXfX5XfXdX&...: ; @ h W.",
"7XX.    > }.xXZXxX`.:.;.>.>.>.4X4X>.6.iXjXNXhXfX>.4XgXjXjXjXuX;.'.dXjXpX;.4.5.;.9.dX;.^ dXcXNXkX9.^ f dXuX'.$.( i.yXaXu.@.$.%.kXjXjX,X1.'.fXcX]. .hXhX8X8XlX3XX.2 2 e T.|.",
"7XX.+ - - `.7XmX7X}.].4X5XhXbX .^ v / 6.4XuXiXhXhXbXbX..^ ^ v 6  .6.uX4X;.5XhXiXiX5X..6 ;.4XiXiX5Xo...bXgX;.;.4.tXyXpXtX'.9.9.,X,XtX,X8.bXbXcX .v 5X8X5X8XwX+.C ; t i T.|.",
"6XX.; 2 2 ^.{.7X6X3X8X8XgXbXSX/ 1 & 4  . . .4XhXZXZXZX1 X X X X v  .>.6.>.hXMXbXcX3X/ 1 /  .6.4X8X5X4XMXlX_ m.gXiXiXiXgXjXpXtX%.%.%.'.uXSXZXbX/ 1 4X8X3X3Xh.N c O t j W. X",
"G D p ; # u u 2 ..mXZXZXhX&.6 4 4 & 1 n 5XbX]. .3 6 s , , 4 4 < M C 4 4 < C m.4 4 c 4 , 4 4 , m 8XlXlXlX3X4 +.8X&.&.,.iXlX5X,.6 6 6 ..6.MXMXhXx X O.h.O.h.h.h.+.+.G U.!.|.",
"G S p t ; 2 2 . m xXZXSXhX..& 3 4 & 1 v 4XbX6...- , 3 , < c k k V C = o o M O., o 8 < , < ,   x 8X8X8XwXO.< _ m...` &.4XhX6.&.1 1 1 / o.MXmX8Xx X ' O.+.+.h.h.h.O.X.I.|. X",
"0XoXI.(.qXt ; O O O 7XnX7XX.3 u u y : # > > o.6XZXnXqXs 2 J J X.^.^.  . 5 O.lX< o O O 2 2 2 X u wXx < X O u -   v n [ n 6 - - 1 1 4 , , O.3XlXM . x 4 % o 8 C J X.~.*X-X-X",
";XXX!.).&Xy t O $ 2 `.7X7Xo.u p f h d r y y ~.{.nXmXxXs 3 D } /./.(.# ; u X.8X5 2 p p d f d # s 6Xb 5 y f H f y } } X.n y : : s g b u 3 `.3X7Xn 2 3 2 % O k J X.~.(.&X-X-X",
" X X|.W.T.f i $ 2 a | E.vX~.a h H W.W.2XT.| ~.^.7XxXnXb 3 h T.-X+X|.e y b X.^.s f Q.W.2XQ.Q.r H ^.b u Q.Q.|.Q.!.=X=X(.F r r i E.!.E.f y 7X{.~.S p # @ @ t p J X.*X&X+X@X@X",
"@X@X@X XQ.T.T.D G G E.).=X(.I.!./.+X.X.XW.T.E.E.{.{.{.[ S G Q.1X#X#Xh F R.{.7XD F +X.X.X+X Xh R.7X} S |.+X#X+XQ.-X-X+XT.h h T.&X[.[.T.| {.[.(./.R.G F F } R./._.Q.|.@X@X@X",
"@X@X@X+X+XQ.Q._._._.).[.=X&X/.XXXX@X@X$XQ.!.!.E.[.[.[.} } R.XX1X1X1XP.T.(.qXqXG G @X$X$X@X@XT.).7X~.} +X@X1X@X|.-X-X+XQ.T.W.W.%X%X%XQ.E.[.[.(.(.(.(.(.(.(.(././.!.Q.@X@X@X"
};
