/* XPM */
static char *floorr[] = {
/* columns rows colors chars-per-pixel */
"85 85 177 2 ",
"   c #3D2F2A",
".  c #3D322D",
"X  c #3F3631",
"o  c #3F3A36",
"O  c #3F3B38",
"+  c #42332D",
"@  c #433E34",
"#  c #4A3930",
"$  c #423730",
"%  c #45413B",
"&  c #494D3B",
"*  c #47463A",
"=  c #534235",
"-  c #56463B",
";  c #594638",
":  c #50483A",
">  c #5C493B",
",  c #4D513D",
"<  c #624D3E",
"1  c #434644",
"2  c #494C49",
"3  c #544F44",
"4  c #4D5B42",
"5  c #535A44",
"6  c #5D5F45",
"7  c #5D524E",
"8  c #585542",
"9  c #435659",
"0  c #455A5E",
"q  c #485C5F",
"w  c #435153",
"e  c #575C56",
"r  c #5D5F58",
"t  c #765E4B",
"y  c #526A4A",
"u  c #56724E",
"i  c #56605B",
"p  c #587952",
"a  c #567653",
"s  c #63715A",
"d  c #656955",
"f  c #455C61",
"g  c #485F61",
"h  c #4B6264",
"j  c #496666",
"k  c #566765",
"l  c #556B6A",
"z  c #5A6763",
"x  c #5B7160",
"c  c #466971",
"v  c #4E767D",
"b  c #6D6460",
"n  c #667F60",
"m  c #6C7F68",
"M  c #677A76",
"N  c #697772",
"B  c #7D7572",
"V  c #747A72",
"C  c #886C56",
"Z  c #866D58",
"A  c #8C6E59",
"S  c #836854",
"D  c #8A765C",
"F  c #93755E",
"G  c #8E7A67",
"H  c #927761",
"J  c #917863",
"K  c #5B8056",
"L  c #5D895B",
"P  c #60895D",
"I  c #6A8566",
"U  c #70876E",
"Y  c #619561",
"T  c #689160",
"R  c #659F67",
"E  c #70936D",
"W  c #7C9165",
"Q  c #7F8C72",
"!  c #789975",
"~  c #67A56A",
"^  c #69A56C",
"/  c #6AAB6D",
"(  c #6EAC71",
")  c #7BA97C",
"_  c #6DB472",
"`  c #6FBB76",
"'  c #70B375",
"]  c #72B878",
"[  c #72C37A",
"{  c #78C57F",
"}  c #938769",
"|  c #848877",
" . c #888D6F",
".. c #82A572",
"X. c #547C83",
"o. c #487984",
"O. c #4A818E",
"+. c #538A8F",
"@. c #4B8591",
"#. c #4E8B94",
"$. c #4B8D9D",
"%. c #528791",
"&. c #528892",
"*. c #5B8F97",
"=. c #519397",
"-. c #53959A",
";. c #559D9C",
":. c #778B8A",
">. c #769D81",
",. c #738F91",
"<. c #61949C",
"1. c #68969F",
"2. c #69AF9C",
"3. c #6FB89F",
"4. c #7AB395",
"5. c #7BB899",
"6. c #4C92A2",
"7. c #4C97A8",
"8. c #4D99AB",
"9. c #5295A4",
"0. c #519AAB",
"q. c #5B9CAC",
"w. c #579CA6",
"e. c #4E9EB1",
"r. c #529FB1",
"t. c #6297A0",
"y. c #56A4A1",
"u. c #5AADA5",
"i. c #52A1AF",
"p. c #5AADAB",
"a. c #4FA2B6",
"s. c #4FA4B8",
"d. c #51A3B5",
"f. c #56A9B3",
"g. c #5CB1B9",
"h. c #63ABA7",
"j. c #62B1AE",
"k. c #64B9BA",
"l. c #64B7B7",
"z. c #7BC683",
"x. c #7FC886",
"c. c #71C6BC",
"v. c #79CCB8",
"b. c #7DD2BB",
"n. c #989791",
"m. c #88B58A",
"M. c #9EA398",
"N. c #95A190",
"B. c #81B797",
"V. c #81C387",
"C. c #87C38C",
"Z. c #8AC38F",
"A. c #80C988",
"S. c #88C98E",
"D. c #8ECF95",
"F. c #86C99C",
"G. c #90C494",
"H. c #93D19A",
"J. c #81C4A0",
"K. c #9DCEA2",
"L. c #89DDAB",
"P. c #88D2AB",
"I. c #80CDB5",
"U. c #8AD6B1",
"Y. c #8ED9B4",
"T. c #A7D6AC",
"R. c #A8D1AC",
"E. c #B7D4BA",
"W. c #B8D5BB",
"Q. c #8DE2BD",
"!. c #91E5BE",
"~. c #91E1B3",
"^. c #BFD3C0",
"/. c #92E8C0",
"(. c #C8D9CA",
"). c gray87",
"_. c #D3DBD4",
/* pixels */
"s.s.s.s.s.s.s.s.s.s.s.s.s.s.s.s.s.s.s.s.s.s.s.s.s.s.s.s.s.s.s.s.s.s.s.s.s.s.s.s.s.s.s.s.s.s.s.s.s.s.s.s.s.s.s.s.s.s.s.s.s.s.s.s.s.s.s.s.s.s.s.s.s.s.s.s.s.s.s.s.s.s.s.s.s.",
"s.s.s.s.s.@.O.O.O.O.y.u.u.;.&.&.&.a.0.&.O.O.u.u.j.j.p.d.a.s.d.d.9.9.O.O.O.;.u.@.O.O.6.s.#.O.O.=.u.#.O.a.a.a.$.O.O.#.u.-.O.O.@.a.0.&.O.O.u.u.u.=.O.O.O.O.6.s.s.s.s.s.s.s.s.",
"s.s.s.d.d.O         ~ [ [ T ; ; ; a.%.; #   _ { D.F.J.w.7.d.r.q.X.l       L [ @     c a.1     y [ 4   a.a.d.f     & [ p     O a.X.; +   [ [ [ y         c s.s.s.s.s.s.s.s.",
"s.s.s.d.d.O         ~ [ [ T ; ; ; l i ; #   _ { D.D.F.l 0 M N N r 7       L [ @     2 l @     y [ 4   f h l 1     & [ p     X l e ; +   [ [ [ y         h 9.d.d.s.s.s.s.s.",
"s.s.s.s.d.O         ~ [ [ T ; ; ; ; ; ; #   _ { D.D.D.3 + t t t < ;       L [ @     # ; +     y [ 4     + ; #     & [ p     + ; ; ; +   [ [ [ y         q %.i.d.s.s.s.s.s.",
"Q.b.d.:.G A A A W _ ^._._.n.+ = ; ; = + K _ [ / @ @ @ = = > > > # .       L [ @     # ; +     y [ C.G.G.! + K _ _ _ [ V.G.G.m.+ + + L _ H.H.H.s   ~ _ _ a o o O O O O @.s.",
"/.I.-.V C S Z } ..[ E.(.(.M.7 - = = = & Y [ [ ( 7 7 7 - = = = = & & & & & Y [ 5 & & : = & & & p [ S.H.H.) & Y [ [ [ [ A.H.H.Z.& & & R [ T.T.T.s   _ [ [ P & +         O.s.",
"/.B.; ; ; + & D.A.[ [ [ [ K.).b     4 [ [ [ [ S.).).).7         Y [ [ [ [ [ [ D.D.D.n   ~ [ [ [ [ [ [ [ [ [ [ [ [ [ [ [ [ [ [ [ [ [ [ [ ).).).B   _ [ [ A.D.&         O.s.",
"/.4.# # # u P A.z.[ [ [ [ K.).b     4 [ [ [ [ S.).).).7         Y [ [ [ [ [ [ D.D.D.s   ~ [ [ [ [ [ [ [ [ [ [ [ [ [ [ [ [ [ [ [ [ [ [ [ ).).).B   _ [ [ A.D.P u       O.s.",
"/.4.      _ [ [ [ [ [ [ [ K.).b     4 [ [ [ [ S.).).).7         Y [ [ [ [ [ [ D.D.D.s   ~ [ [ [ [ [ [ [ [ [ [ [ [ [ [ [ [ [ [ [ [ [ [ [ ).).).B   _ [ [ A.D.{ _       O.s.",
"g.+.      _ [ [ [ [ [ [ [ z.S.' ~ ~ / [ [ [ [ [ S.S.S.( ~ ~ ~ ~ ` [ [ [ [ [ [ [ [ { _ ~ ` [ [ [ [ [ [ [ [ [ [ [ [ [ [ [ [ [ [ [ [ [ [ [ S.S.S.] ~ [ [ [ [ { W.^.~ ~ ~ y.s.",
"s.O.      ~ _ _ ` [ [ [ [ [ [ [ [ [ [ [ [ [ [ [ [ [ [ [ [ [ [ [ [ [ [ [ [ [ [ [ [ [ [ [ [ [ [ [ [ [ [ [ [ [ [ [ [ [ [ [ [ [ [ [ [ [ [ [ [ [ [ [ [ [ [ [ [ [ (._.[ [ [ u.s.",
"s.O.            p [ [ [ [ [ [ [ [ [ [ [ [ [ [ [ [ [ [ [ [ [ [ [ [ [ [ [ [ [ [ [ [ [ [ [ [ [ [ [ [ [ [ [ [ [ [ [ [ [ [ [ [ [ [ [ [ [ [ [ [ [ [ [ [ [ [ [ [ [ (._.[ [ [ u.s.",
"s.=.y y y s s B ! [ [ [ [ [ [ [ [ [ [ [ [ [ [ [ [ [ [ [ [ [ [ [ [ [ [ [ [ [ [ [ [ [ [ [ [ [ [ [ [ [ [ [ [ [ [ [ [ [ [ [ [ [ [ [ [ [ [ [ [ [ [ [ [ [ [ [ [ [ N.n.T T T ;.s.",
"s.u.[ [ [ H.T.).R.[ [ [ [ [ [ [ [ [ [ [ [ [ [ [ [ [ [ [ [ [ [ [ [ [ [ [ [ [ [ [ [ [ [ [ [ [ [ [ [ [ [ [ [ [ [ [ [ [ [ [ [ [ [ [ [ [ [ [ [ [ [ [ [ [ [ [ [ [ & + ; ; ; &.s.",
"s.u.[ [ [ H.T.).R.[ [ [ [ [ [ [ [ [ [ [ [ [ [ [ [ [ [ [ [ [ [ [ [ [ [ [ [ [ [ [ [ [ [ [ [ [ [ [ [ [ [ [ [ [ [ [ [ [ [ [ [ [ [ [ [ [ [ [ [ [ [ [ [ [ [ [ [ [ 5 = ; ; ; &.s.",
"s.u.[ [ [ H.T.).R.[ [ [ [ [ [ [ [ [ [ [ [ [ [ [ [ [ [ [ [ [ [ [ [ [ [ [ [ [ [ [ [ [ [ [ [ [ [ [ [ [ [ [ [ [ [ [ [ [ [ [ [ [ [ [ [ [ [ [ [ [ [ [ [ [ [ [ [ [ 6 ; ; ; ; &.s.",
"s.O.      _ [ [ [ [ [ [ [ [ [ [ [ [ [ [ [ [ [ [ [ [ [ [ [ [ [ [ [ [ [ [ [ [ [ [ [ [ [ [ [ [ [ [ [ [ [ [ [ [ [ [ [ [ [ [ [ [ [ [ [ [ [ [ [ [ [ [ [ [ [ [ [ [ 6 ; ; l a.a.s.",
"s.O.+ + + L ~ [ [ [ [ [ [ [ [ [ [ [ [ [ [ [ [ [ [ [ [ [ [ [ [ [ [ [ [ [ [ [ [ [ [ [ [ [ [ [ [ [ [ [ [ [ [ [ [ [ [ [ [ [ [ [ [ [ [ [ [ [ [ [ [ [ [ [ [ [ [ [ 5 = ; i %.0.s.",
"s.&.; ; ; + & [ [ [ [ [ [ [ [ [ [ [ [ [ [ [ [ [ [ [ [ [ [ [ [ [ [ [ [ [ [ [ [ [ [ [ [ [ [ [ [ [ [ [ [ [ [ [ [ [ [ [ [ [ [ [ [ [ [ [ [ [ [ [ [ [ [ [ [ [ [ [ & + ; ; ; &.s.",
"s.9.v e ; + & [ [ [ [ [ [ [ [ [ [ [ [ [ [ [ [ [ [ [ [ [ [ [ [ [ [ [ [ [ [ [ [ [ [ [ [ [ [ [ [ [ [ [ [ [ [ [ [ [ [ [ [ [ [ [ [ [ [ [ [ [ [ [ [ [ [ [ [ [ [ [ Y K # # # O.s.",
"s.d.0.k ; + & [ [ [ [ [ [ [ [ [ [ [ [ [ [ [ [ [ [ [ [ [ [ [ [ [ [ [ [ [ [ [ [ [ [ [ [ [ [ [ [ [ [ [ [ [ [ [ [ [ [ [ [ [ [ [ [ [ [ [ [ [ [ [ [ [ [ [ [ [ [ [ [ _       O.s.",
"s.@.o X + m.Z.[ [ [ [ [ [ [ [ [ [ [ [ [ [ [ [ [ [ [ [ [ [ [ [ [ [ [ [ [ [ [ [ [ [ [ [ [ [ [ [ [ [ [ [ [ [ [ [ [ [ [ [ [ [ [ [ [ [ [ [ [ [ [ [ [ [ [ [ [ [ [ [ [ _ _ _ P.Q.",
"s.O.      G.H.[ [ [ [ [ [ [ [ [ [ [ [ [ [ [ [ [ [ [ [ [ [ [ [ [ [ [ [ [ [ [ [ [ [ [ [ [ [ [ [ [ [ [ [ [ [ [ [ [ [ [ [ [ [ [ [ [ [ [ [ [ [ [ [ [ [ [ [ [ [ [ / / [ [ { L./.",
"s.O.      G.H.[ [ [ [ [ [ [ [ [ [ [ [ [ [ [ [ [ [ [ [ [ [ [ [ [ [ [ [ [ [ [ [ [ [ [ [ [ [ [ [ [ [ [ [ [ [ [ [ [ [ [ [ [ [ [ [ [ [ [ [ [ [ [ [ [ [ [ [ [ [ [ & @ D.D.D.~./.",
"c.2.p p p V.A.[ [ [ [ [ [ [ [ [ [ [ [ [ [ [ [ [ [ [ [ [ [ [ [ [ [ [ [ [ [ [ [ [ [ [ [ [ [ [ [ [ [ [ [ [ [ [ [ [ [ [ [ [ [ [ [ [ [ [ [ [ [ [ [ [ [ [ [ [ [ [ & @ D.D.D.v.c.",
"/.L.[ [ [ [ [ [ [ [ [ [ [ [ [ [ [ [ [ [ [ [ [ [ [ [ [ [ [ [ [ [ [ [ [ [ [ [ [ [ [ [ [ [ [ [ [ [ [ [ [ [ [ [ [ [ [ [ [ [ [ [ [ [ [ [ [ [ [ [ [ [ [ [ [ [ [ [ & @ D.D.D.j.s.",
"/.5.& & & _ [ [ [ [ [ [ [ [ [ [ [ [ [ [ [ [ [ [ [ [ [ [ [ [ [ [ [ [ [ [ [ [ [ [ [ [ [ [ [ [ [ [ [ [ [ [ [ [ [ [ [ [ [ [ [ [ [ [ [ [ [ [ [ [ [ [ [ [ [ [ [ [ 6 = 3 & 3 #.s.",
"/.4.o .   _ [ [ [ [ [ [ [ [ [ [ [ [ [ [ [ [ [ [ [ [ [ [ [ [ [ [ [ [ [ [ [ [ [ [ [ [ [ [ [ [ [ [ [ [ [ [ [ [ [ [ [ [ [ [ [ [ [ [ [ [ [ [ [ [ [ [ [ [ [ [ [ [ 6 = + + + O.s.",
"/.b.8.0   _ [ [ [ [ [ [ [ [ [ [ [ [ [ [ [ [ [ [ [ [ [ [ [ [ [ [ [ [ [ [ [ [ [ [ [ [ [ [ [ [ [ [ [ [ [ [ [ [ [ [ [ [ [ [ [ [ [ [ [ [ [ [ [ [ [ [ [ [ [ [ [ [ 6 > t t t *.s.",
"/.b.8.h # K Y [ [ [ [ [ [ [ [ [ [ [ [ [ [ [ [ [ [ [ [ [ [ [ [ [ [ [ [ [ [ [ [ [ [ [ [ [ [ [ [ [ [ [ [ [ [ [ [ [ [ [ [ [ [ [ [ [ [ [ [ [ [ [ [ [ [ [ [ [ [ [ 6 > t t t *.s.",
"/.b.s.l ; + & [ [ [ [ [ [ [ [ [ [ [ [ [ [ [ [ [ [ [ [ [ [ [ [ [ [ [ [ [ [ [ [ [ [ [ [ [ [ [ [ [ [ [ [ [ [ [ [ [ [ [ [ [ [ [ [ [ [ [ [ [ [ [ [ [ [ [ [ [ [ [ 6 > t t t *.s.",
"k.g.8.g + ! ) [ [ [ [ [ [ [ [ [ [ [ [ [ [ [ [ [ [ [ [ [ [ [ [ [ [ [ [ [ [ [ [ [ [ [ [ [ [ [ [ [ [ [ [ [ [ [ [ [ [ [ [ [ [ [ [ [ [ [ [ [ [ [ [ [ [ [ [ [ [ [ , # < z *.0.s.",
"s.a.8.0   G.H.[ [ [ [ [ [ [ [ [ [ [ [ [ [ [ [ [ [ [ [ [ [ [ [ [ [ [ [ [ [ [ [ [ [ [ [ [ [ [ [ [ [ [ [ [ [ [ [ [ [ [ [ [ [ [ [ [ [ [ [ [ [ [ [ [ [ [ [ [ [ [ & + ; l d.a.s.",
"s.O.      G.H.[ [ [ [ [ [ [ [ [ [ [ [ [ [ [ [ [ [ [ [ [ [ [ [ [ [ [ [ [ [ [ [ [ [ [ [ [ [ [ [ [ [ [ [ [ [ [ [ [ [ [ [ [ [ [ [ [ [ [ [ [ [ [ [ [ [ [ [ [ [ [ &         O.s.",
"s.#.4 4 4 C.S.[ [ [ [ [ [ [ [ [ [ [ [ [ [ [ [ [ [ [ [ [ [ [ [ [ [ [ [ [ [ [ [ [ [ [ [ [ [ [ [ [ [ [ [ [ [ [ [ [ [ [ [ [ [ [ [ [ [ [ [ [ [ [ [ [ [ [ [ [ [ [ &         O.s.",
"s.u.[ [ [ [ [ [ [ [ [ [ [ [ [ [ [ [ [ [ [ [ [ [ [ [ [ [ [ [ [ [ [ [ [ [ [ [ [ [ [ [ [ [ [ [ [ [ [ [ [ [ [ [ [ [ [ [ [ [ [ [ [ [ [ [ [ [ [ [ [ [ [ [ [ [ [ [ &         O.s.",
"s.=.y y y y p [ [ [ [ [ [ [ [ [ [ [ [ [ [ [ [ [ [ [ [ [ [ [ [ [ [ [ [ [ [ [ [ [ [ [ [ [ [ [ [ [ [ [ [ [ [ [ [ [ [ [ [ [ [ [ [ [ [ [ [ [ [ [ [ [ [ [ [ [ [ [ Y L L L L ;.s.",
"s.O.        & [ [ [ [ [ [ [ [ [ [ [ [ [ [ [ [ [ [ [ [ [ [ [ [ [ [ [ [ [ [ [ [ [ [ [ [ [ [ [ [ [ [ [ [ [ [ [ [ [ [ [ [ [ [ [ [ [ [ [ [ [ [ [ [ [ [ [ [ [ [ [ [ [ [ [ [ u.s.",
"s.O.        & [ [ [ [ [ [ [ [ [ [ [ [ [ [ [ [ [ [ [ [ [ [ [ [ [ [ [ [ [ [ [ [ [ [ [ [ [ [ [ [ [ [ [ [ [ [ [ [ [ [ [ [ [ [ [ [ [ [ [ [ [ [ [ [ [ [ [ [ [ [ [ 4 @ @ @ @ @.s.",
"s.#.1 @ + + & ~ _ [ [ [ [ [ [ [ [ [ [ [ [ [ [ [ [ [ [ [ [ [ [ [ [ [ [ [ [ [ [ [ [ [ [ [ [ [ [ [ [ [ [ [ [ [ [ [ [ [ [ [ [ [ [ [ [ [ [ [ [ [ [ [ [ [ [ [ [ [ &         O.s.",
"s.a.r.l ; ; =   p [ [ [ [ [ [ [ [ [ [ [ [ [ [ [ [ [ [ [ [ [ [ [ [ [ [ [ [ [ [ [ [ [ [ [ [ [ [ [ [ [ [ [ [ [ [ [ [ [ [ [ [ [ [ [ [ [ [ [ [ [ [ [ [ [ [ [ [ [ &         O.s.",
"c.k.e.h # # : s ~ [ [ [ [ [ [ [ [ [ [ [ [ [ [ [ [ [ [ [ [ [ [ [ [ [ [ [ [ [ [ [ [ [ [ [ [ [ [ [ [ [ [ [ [ [ [ [ [ [ [ [ [ [ [ [ [ [ [ [ [ [ [ [ [ [ [ [ [ [ 5 # # 2 j 6.s.",
"/.b.e.f     & D.A.[ [ [ [ [ [ [ [ [ [ [ [ [ [ [ [ [ [ [ [ [ [ [ [ [ [ [ [ [ [ [ [ [ [ [ [ [ [ [ [ [ [ [ [ [ [ [ [ [ [ [ [ [ [ [ [ [ [ [ [ [ [ [ [ [ [ [ [ [ 6 ; ; k 0.a.s.",
"/.5.1 o     & D.A.[ [ [ [ [ [ [ [ [ [ [ [ [ [ [ [ [ [ [ [ [ [ [ [ [ [ [ [ [ [ [ [ [ [ [ [ [ [ [ [ [ [ [ [ [ [ [ [ [ [ [ [ [ [ [ [ [ [ [ [ [ [ [ [ [ [ [ [ [ , + + 0 8.a.s.",
"/.4.@ @ @ @ 5 D.x.[ [ [ [ [ [ [ [ [ [ [ [ [ [ [ [ [ [ [ [ [ [ [ [ [ [ [ [ [ [ [ [ [ [ [ [ [ [ [ [ [ [ [ [ [ [ [ [ [ [ [ [ [ [ [ [ [ [ [ [ [ [ [ [ [ [ [ [ [ &     9 $.e.s.",
"/.L.[ [ [ [ [ [ [ [ [ [ [ [ [ [ [ [ [ [ [ [ [ [ [ [ [ [ [ [ [ [ [ [ [ [ [ [ [ [ [ [ [ [ [ [ [ [ [ [ [ [ [ [ [ [ [ [ [ [ [ [ [ [ [ [ [ [ [ [ [ [ [ [ [ [ [ [ &         O.s.",
"v.3.L L L L Y [ [ [ [ [ [ [ [ [ [ [ [ [ [ [ [ [ [ [ [ [ [ [ [ [ [ [ [ [ [ [ [ [ [ [ [ [ [ [ [ [ [ [ [ [ [ [ [ [ [ [ [ [ [ [ [ [ [ [ [ [ [ [ [ [ [ [ [ [ [ [ p y y y y =.s.",
"s.O.        & [ [ [ [ [ [ [ [ [ [ [ [ [ [ [ [ [ [ [ [ [ [ [ [ [ [ [ [ [ [ [ [ [ [ [ [ [ [ [ [ [ [ [ [ [ [ [ [ [ [ [ [ [ [ [ [ [ [ [ [ [ [ [ [ [ [ [ [ [ [ [ [ [ [ [ [ u.s.",
"s.8.O.o.v X & [ [ [ [ [ [ [ [ [ [ [ [ [ [ [ [ [ [ [ [ [ [ [ [ [ [ [ [ [ [ [ [ [ [ [ [ [ [ [ [ [ [ [ [ [ [ [ [ [ [ [ [ [ [ [ [ [ [ [ [ [ [ [ [ [ [ [ [ [ [ [ S.C.4 4 4 #.s.",
"s.s.a.8.6.o & [ [ [ [ [ [ [ [ [ [ [ [ [ [ [ [ [ [ [ [ [ [ [ [ [ [ [ [ [ [ [ [ [ [ [ [ [ [ [ [ [ [ [ [ [ [ [ [ [ [ [ [ [ [ [ [ [ [ [ [ [ [ [ [ [ [ [ [ [ [ [ H.G.      O.s.",
"s.s.s.s.s.O & [ [ [ [ [ [ [ [ [ [ [ [ [ [ [ [ [ [ [ [ [ [ [ [ [ [ [ [ [ [ [ [ [ [ [ [ [ [ [ [ [ [ [ [ [ [ [ [ [ [ [ [ [ [ [ [ [ [ [ [ [ [ [ [ [ [ [ [ [ [ [ H.G.      O.s.",
"s.f.k.l.l.% & Y / [ [ [ [ [ [ [ [ [ [ [ [ [ [ [ [ [ [ [ [ [ [ [ [ [ [ [ [ [ [ [ [ [ [ [ [ [ [ [ [ [ [ [ [ [ [ [ [ [ [ [ [ [ [ [ [ [ [ [ [ [ [ [ [ [ [ [ [ [ ) ! + % w $.s.",
"s.k.!.Y.P.8 =   p [ [ [ [ [ [ [ [ [ [ [ [ [ [ [ [ [ [ [ [ [ [ [ [ [ [ [ [ [ [ [ [ [ [ [ [ [ [ [ [ [ [ [ [ [ [ [ [ [ [ [ [ [ [ [ [ [ [ [ [ [ [ [ [ [ [ [ [ [ & + ; l a.a.s.",
"s.w.| | Q > =   p [ [ [ [ [ [ [ [ [ [ [ [ [ [ [ [ [ [ [ [ [ [ [ [ [ [ [ [ [ [ [ [ [ [ [ [ [ [ [ [ [ [ [ [ [ [ [ [ [ [ [ [ [ [ [ [ [ [ [ [ [ [ [ [ [ [ [ [ [ Y K # 1 f $.s.",
"s.*.t t t > =   p [ [ [ [ [ [ [ [ [ [ [ [ [ [ [ [ [ [ [ [ [ [ [ [ [ [ [ [ [ [ [ [ [ [ [ [ [ [ [ [ [ [ [ [ [ [ [ [ [ [ [ [ [ [ [ [ [ [ [ [ [ [ [ [ [ [ [ [ [ [ _       O.s.",
"s.O.+ + + = =   p [ [ [ [ [ [ [ [ [ [ [ [ [ [ [ [ [ [ [ [ [ [ [ [ [ [ [ [ [ [ [ [ [ [ [ [ [ [ [ [ [ [ [ [ [ [ [ [ [ [ [ [ [ [ [ [ [ [ [ [ [ [ [ [ [ [ [ [ [ [ _       O.s.",
"s.#.3 3 & = - 7 I [ [ [ [ [ [ [ [ [ [ [ [ [ [ [ [ [ [ [ [ [ [ [ [ [ [ [ [ [ [ [ [ [ [ [ [ [ [ [ [ [ [ [ [ [ [ [ [ [ [ [ [ [ [ [ [ [ [ [ [ [ [ [ [ [ [ [ [ [ [ _ & & & =.g.",
"s.j.D.D.D.@ 7 ).R.[ [ [ [ [ [ [ [ [ [ [ [ [ [ [ [ [ [ [ [ [ [ [ [ [ [ [ [ [ [ [ [ [ [ [ [ [ [ [ [ [ [ [ [ [ [ [ [ [ [ [ [ [ [ [ [ [ [ [ [ [ [ [ [ [ [ [ [ [ [ [ [ [ [ L./.",
"s.j.D.D.D.@ 7 ).R.[ [ [ [ [ [ [ [ [ [ [ [ [ [ [ [ [ [ [ [ [ [ [ [ [ [ [ [ [ [ [ [ [ [ [ [ [ [ [ [ [ [ [ [ [ [ [ [ [ [ [ [ [ [ [ [ [ [ [ [ [ [ [ [ [ [ [ [ [ A.V.p p p F./.",
"s.j.D.D.D.@ 7 ).R.[ [ [ [ [ [ [ [ [ [ [ [ [ [ [ [ [ [ [ [ [ [ [ [ [ [ [ [ [ [ [ [ [ [ [ [ [ [ [ [ [ [ [ [ [ [ [ [ [ [ [ [ [ [ [ [ [ [ [ [ [ [ [ [ [ [ [ [ [ H.G.      4./.",
"s.u.[ { { / ( S.z.[ [ [ [ [ [ [ [ [ [ [ [ [ [ [ [ [ [ [ [ [ [ [ [ [ [ [ [ [ [ [ [ [ [ [ [ [ [ [ [ [ [ [ [ [ [ [ [ [ [ [ [ [ [ [ [ [ [ [ [ [ [ [ [ [ [ [ [ [ H.G.      4./.",
"s.u._ _ _ [ [ [ [ [ [ [ [ [ [ [ [ [ [ [ [ [ [ [ [ [ [ [ [ [ [ [ [ [ [ [ [ [ [ [ [ [ [ [ [ [ [ [ [ [ [ [ [ [ [ [ [ [ [ [ [ [ [ [ [ [ [ [ [ [ [ [ [ [ [ [ [ [ Z.m.+ $ % 4./.",
"s.O.      _ [ [ [ [ [ [ [ [ [ [ [ [ [ [ [ [ [ [ [ [ [ [ [ [ [ [ [ [ [ [ [ [ [ [ [ [ [ [ [ [ [ [ [ [ [ [ [ [ [ [ [ [ [ [ [ [ [ [ [ [ [ [ [ [ [ [ [ [ [ [ [ [ & + ; U U.Q./.",
"k.h.a 3 # K Y [ [ [ [ [ [ [ [ [ [ [ [ [ [ [ [ [ [ [ [ [ [ [ [ [ [ [ [ [ [ [ [ [ [ [ [ [ [ [ [ [ [ [ [ [ [ [ [ [ [ [ [ [ [ [ [ [ [ [ [ [ [ [ [ [ [ [ [ [ [ [ & + ; d >.P./.",
"/.!.U.m ; + & [ [ [ [ [ [ [ [ [ [ [ [ [ [ [ [ [ [ [ [ [ [ [ [ [ [ [ [ [ [ [ [ [ [ [ [ [ [ [ [ [ [ [ [ [ [ [ [ [ [ [ [ [ [ [ [ [ [ [ [ [ [ [ [ [ [ [ [ [ [ [ & + ; ; ; B./.",
"/.!.Q.U ; # = 4 L [ [ [ [ [ [ [ [ [ [ [ [ [ [ [ [ [ [ [ [ [ [ [ [ [ [ [ [ [ [ [ [ [ [ [ [ [ [ [ [ [ [ [ [ [ [ [ [ [ [ [ [ [ [ [ [ [ [ [ [ [ [ [ [ [ [ [ [ [ R L + + + 4./.",
"/././.U ; ; =   p [ [ [ [ [ [ [ [ [ [ [ [ [ [ [ [ [ [ [ [ [ [ [ [ [ [ [ [ [ [ [ [ [ [ [ [ [ [ [ [ [ [ [ [ [ [ [ [ [ [ [ [ [ [ [ [ [ [ [ [ [ [ [ [ [ [ [ [ [ [ _       4./.",
"s.d.9.k ; ; =   p [ [ [ [ [ [ [ [ [ [ [ [ [ [ [ [ [ [ [ [ [ [ [ [ [ [ [ [ [ [ [ [ [ [ [ [ [ [ [ [ [ [ [ [ [ [ [ [ [ [ [ [ [ [ [ [ [ [ [ [ [ [ [ [ [ [ [ [ [ H.H.[ [ [ u.s.",
"s.0.X.e ; = - b E [ [ [ [ [ [ [ [ [ [ [ [ [ [ [ [ [ [ [ [ [ [ [ [ [ [ [ [ [ [ [ [ [ [ [ [ [ [ [ [ [ [ [ [ [ [ [ [ [ [ [ [ [ [ [ [ [ [ [ [ [ [ [ [ [ [ [ [ [ H.H.[ [ [ u.s.",
"s.&.; ; ; + 7 ).R.[ [ [ [ [ [ [ [ [ [ [ [ [ [ [ [ [ [ [ [ [ [ [ [ [ [ [ [ [ [ [ [ [ [ [ [ [ [ [ [ [ [ [ [ [ [ [ [ [ [ [ [ [ [ [ [ [ [ [ [ [ [ [ [ [ [ [ [ [ H.H.[ [ [ u.s.",
"s.;.T T T n.M.K.S.[ [ [ [ [ [ [ [ [ [ [ [ [ [ [ [ [ [ [ [ [ [ [ [ [ [ [ [ [ [ [ [ [ [ [ [ [ [ [ [ [ [ [ [ [ [ [ [ [ [ [ [ [ [ [ [ [ [ [ [ [ [ [ [ [ [ [ [ [ I s y y y =.s.",
"s.u.[ [ [ _.(.[ [ [ [ [ [ [ [ [ [ [ [ [ [ [ [ [ [ [ [ [ [ [ [ [ [ [ [ [ [ [ [ [ [ [ [ [ [ [ [ [ [ [ [ [ [ [ [ [ [ [ [ [ [ [ [ [ [ [ [ [ [ [ [ [ [ [ [ [ [ [ &         O.s.",
"s.u.[ [ [ _.(.[ [ [ [ [ [ [ [ [ [ [ [ [ [ [ [ [ [ [ [ [ [ [ [ [ [ [ [ [ [ [ [ [ [ [ [ [ [ [ [ [ [ [ [ [ [ [ [ [ [ [ [ [ [ [ [ [ [ [ [ [ [ [ [ [ [ [ [ [ [ [ _ ~       O.s.",
"s.y.~ ~ ~ ^.E.[ [ [ [ [ [ [ [ [ [ [ [ [ [ [ [ [ [ [ [ [ [ [ [ [ [ [ [ [ [ [ [ [ [ [ [ [ [ [ [ [ [ [ [ [ [ [ [ [ [ [ [ [ [ [ [ [ [ [ [ [ [ [ [ [ [ [ [ [ [ [ [ _       O.s.",
"s.O.      _ [ [ [ [ [ [ [ [ [ [ [ [ [ [ [ [ [ [ [ [ [ [ [ [ [ [ [ [ [ [ [ [ [ [ [ [ [ [ [ [ [ [ [ [ [ [ [ [ [ [ [ [ [ [ [ [ [ [ [ [ [ [ [ [ [ [ [ [ [ [ [ [ [ _       O.s.",
"s.O.      _ [ [ [ [ [ [ [ S.R.E p p L [ [ [ [ z.R.R.R.I p p p p / [ [ [ [ [ [ x.A.A.~ p _ [ [ [ [ [ [ [ [ [ [ [ [ [ [ [ [ [ [ [ [ [ [ [ R.R.R.! p ` [ A.A.A.P u # # # @.s.",
"s.O.      _ [ [ [ [ [ [ [ K.).b     4 [ [ [ [ S.).).).7         Y [ [ [ [ [ [ D.D.D.n   ~ [ [ [ [ [ [ [ [ [ [ [ [ [ [ [ [ [ [ [ [ [ [ [ ).).).B   _ { D.D.D.3 + ; ; ; &.s.",
"s.O.      & & & L [ E.(.(.M.7 - = = = & Y [ [ ( 7 7 7 - = = = = & & & & & Y [ 5 & & : = & & & p [ S.H.H.) & Y [ [ [ [ A.H.H.Z.& & & R [ T.T.T.s   D } } } } Z S C C C <.s.",
"s.@.O o @ .     u _ ^._._.n.+ = ; ; = + K _ [ / @ @ @ = = > > 3 % O       L [ @     # ; +     y [ C.G.G.! + K _ _ _ [ V.G.G.m.+ + + L _ H.H.H.s   S A A A A F F J J G <.s.",
"s.s.s.f.p.@         ~ [ [ T ; ; ; ; ; ; #   _ { D.D.D.& + t M d.a.a.      L [ @     # ; +     y [ 4     + ; #     & [ p     + ; ; ; +   [ [ [ y         # ; C J | :.q.d.s.",
"s.s.s.d.f.o         ~ [ [ T ; ; ; l l l 1   _ { D.D.D.& + t M d.a.a.      L [ @ X 0 h l f 9   y [ 4   9 q l h f 9 j [ p     X l l l %   [ [ [ y         # ; C J ,.1.d.d.s.",
"s.s.s.s.s.O         ~ [ [ T ; ; ; d.d.d.f   _ { D.D.D.& + t M s.s.s.      L [ @ 1 8.e.s.8.$.  y [ 4   6.7.a.a.a.6.;.[ p     O d.d.d.w   [ [ [ y         # ; C G d.d.s.s.s.",
"s.s.s.s.s.@.O.O.O.O.y.u.u.;.&.&.&.a.a.a.$.O.u.u.j.j.j.#.O.*.w.s.s.s.O.O.O.;.u.@.@.a.a.s.a.e.O.=.u.#.O.e.a.s.s.a.e.i.u.-.O.O.@.a.a.a.$.O.u.u.u.=.O.O.O.O.O.&.<.t.s.s.s.s.s.",
"s.s.s.s.s.s.s.s.s.s.s.s.s.s.s.s.s.s.s.s.s.s.s.s.s.s.s.s.s.s.s.s.s.s.s.s.s.s.s.s.s.s.s.s.s.s.s.s.s.s.s.s.s.s.s.s.s.s.s.s.s.s.s.s.s.s.s.s.s.s.s.s.s.s.s.s.s.s.s.s.s.s.s.s.s."
};
