/* XPM */
static char *_[] = {
/* columns rows colors chars-per-pixel */
"85 85 250 2 ",
"   c #090808",
".  c #39341D",
"X  c #342F1B",
"o  c #3B2E24",
"O  c #3D2E2B",
"+  c #352D29",
"@  c #3B3324",
"#  c #3B322B",
"$  c #363628",
"%  c #392D34",
"&  c #3B3736",
"*  c #2C2C27",
"=  c #221F1F",
"-  c #42321D",
";  c #442C1D",
":  c #432D24",
">  c #422D2C",
",  c #4A2D2B",
"<  c #44332C",
"1  c #453728",
"2  c #442A33",
"3  c #463A35",
"4  c #573A35",
"5  c #613E38",
"6  c #3A4837",
"7  c #395135",
"8  c #3F623F",
"9  c #45472C",
"0  c #54472D",
"q  c #494A38",
"w  c #544333",
"e  c #5A453A",
"r  c #554838",
"t  c #455337",
"y  c #495433",
"u  c #63493B",
"i  c #57613C",
"p  c #3B3A48",
"a  c #523D43",
"s  c #673A45",
"d  c #3D524E",
"f  c #3C6741",
"g  c #494744",
"h  c #564644",
"j  c #584946",
"k  c #495845",
"l  c #585848",
"z  c #595654",
"x  c #4A5759",
"c  c #624644",
"v  c #635B55",
"b  c #70564C",
"n  c #496348",
"m  c #486948",
"M  c #546A4A",
"N  c #55794C",
"B  c #5A6958",
"V  c #4E7A52",
"C  c #547C53",
"Z  c #5A7855",
"A  c #487250",
"S  c #64685B",
"D  c #66775C",
"F  c #786654",
"G  c #4A5A61",
"H  c #486467",
"J  c #576869",
"K  c #4F6C73",
"L  c #6B6963",
"P  c #736C68",
"I  c #687864",
"U  c #76776B",
"Y  c #7A7974",
"T  c #68777A",
"R  c #866C58",
"E  c #8D745D",
"W  c #867B76",
"Q  c #897769",
"!  c #865654",
"~  c #588859",
"^  c #5A945D",
"/  c #63945B",
"(  c #64865C",
")  c #5C9862",
"_  c #5C8A6A",
"`  c #678765",
"'  c #659766",
"]  c #778D71",
"[  c #5EA466",
"{  c #5BBF6E",
"}  c #62A366",
"|  c #64A46B",
" . c #65AC6B",
".. c #6AA86C",
"X. c #6AB66D",
"o. c #76B96D",
"O. c #69AB72",
"+. c #75AC75",
"@. c #6BB472",
"#. c #6DBD74",
"$. c #6DBE7B",
"%. c #67B777",
"&. c #73BD75",
"*. c #74BE7A",
"=. c #7ABD7B",
"-. c #77B876",
";. c #70A66B",
":. c #5CC870",
">. c #6AC56E",
",. c #72C56E",
"<. c #65C474",
"1. c #6DC475",
"2. c #6DC47B",
"3. c #6CC97C",
"4. c #68C877",
"5. c #73C375",
"6. c #7AC375",
"7. c #72C37A",
"8. c #79C37B",
"9. c #72CA7C",
"0. c #75C978",
"q. c #87857B",
"w. c #8F8972",
"e. c #A4967C",
"r. c #83B577",
"t. c #81C479",
"y. c #4B7D8B",
"u. c #527D8E",
"i. c #887F81",
"p. c #3C9FA4",
"a. c #4C838D",
"s. c #47858B",
"d. c #4D8392",
"f. c #4A8996",
"g. c #548894",
"h. c #4E9699",
"j. c #549698",
"k. c #548E8D",
"l. c #6F8F8C",
"z. c #59A99D",
"x. c #56B19E",
"c. c #6CBD82",
"v. c #77BD84",
"b. c #77B395",
"n. c #4B9AA8",
"m. c #549AAB",
"M. c #4C9CB6",
"N. c #559DB5",
"B. c #559DB8",
"V. c #4E8DA2",
"C. c #6294A8",
"Z. c #4AA6AB",
"A. c #52A3AD",
"S. c #59AAA5",
"D. c #59B2A6",
"F. c #4DA4B4",
"G. c #4CA9B3",
"H. c #4DA4BA",
"J. c #49A8B8",
"K. c #53A4B4",
"L. c #54A9B7",
"P. c #53A4BA",
"I. c #57A6BA",
"U. c #5BB2B5",
"Y. c #65B3B0",
"T. c #6CC583",
"R. c #6DCA82",
"E. c #73C482",
"W. c #77C784",
"Q. c #74C7B2",
"!. c #4CA5C3",
"~. c #52A5C3",
"^. c #509DC2",
"/. c #7AC9C0",
"(. c #8B8882",
"). c #958C86",
"_. c #98948B",
"`. c #9D9793",
"'. c #889883",
"]. c #A79A88",
"[. c #A59B94",
"{. c #A59C97",
"}. c #94B194",
"|. c #A9A39A",
" X c #B7A78F",
".X c #ADA6A2",
"XX c #B5AAA5",
"oX c #BCB2AC",
"OX c #B8B6A8",
"+X c #B7B7AE",
"@X c #CAB392",
"#X c #C5B4AC",
"$X c #C4BBB5",
"%X c #C8BAB4",
"&X c #D2BEB6",
"*X c #86C789",
"=X c #8ACA95",
"-X c #96CA96",
";X c #8BD296",
":X c #8ED09D",
">X c #94D296",
",X c #92CC8C",
"<X c #8FD4AA",
"1X c #ABD2AD",
"2X c #8BE7BB",
"3X c #96E5B8",
"4X c #E9CB9F",
"5X c #CCC1BB",
"6X c #D4C3BC",
"7X c #D7C5BB",
"8X c #DEC5A3",
"9X c #EBCBA3",
"0X c #E8CBA7",
"qX c #E5CABD",
"wX c #E8CEB3",
"eX c #ECD4BB",
"rX c #ECD2B3",
"tX c #ECD0AE",
"yX c #DBC09B",
"uX c #95E7C6",
"iX c #91E8C9",
"pX c #A0DAC4",
"aX c #DACBC5",
"sX c #D6CAC5",
"dX c #DBD4CC",
"fX c #D9DBD7",
"gX c #C9D6CB",
"hX c #E5CCC3",
"jX c #E9CDC3",
"kX c #E5CEC9",
"lX c #EAD3C4",
"zX c #E3D3CC",
"xX c #EBD5CB",
"cX c #EDD9CD",
"vX c #E8D3C5",
"bX c #F0DACB",
"nX c #E5D6D1",
"mX c #E5D9D4",
"MX c #EFDED6",
"NX c #EEDED8",
"BX c #E9D8D5",
"VX c #F0DDD5",
"CX c #F1DED8",
"ZX c #EDE0DA",
"AX c #F1E1DA",
"SX c #F0E1D7",
"DX c #DCDCE2",
"FX c #E5DCE3",
"GX c #E2E1E6",
"HX c #D9E3DE",
/* pixels */
"P.P.F.A.A.L.L.~.H.J.K.K.F.K.P.!.!.F.F.H.P.L.L.G.p.F.I.A.A.P.P.H.Z.Z.L.P.P.F.G.N.N.G.F.F.F.F.P.H.J.H.P.A.A.~.P.K.G.G.G.F.H.K.K.F.F.G.P.P.L.L.!.!.~.G.G.L.K.F.P.I.M.H.~.P.K.",
"H.H.F.K.K.a.a.d.s.s.z.S.S.j.g.g.g.F.n.g.d.a.S.D.D.U.Y.K.K.P.P.K.h.h.d.a.a.j.S.a.y.a.V.F.d.y.a.h.D.f.s.A.K.P.h.a.a.f.D.h.s.a.a.K.m.g.a.a.S.S.A.h.d.s.s.d.V.F.P.P.H.H.P.K.K.",
"J.F.P.P.I.& + $ O > [ <.W.' 0 e 5 G.g.c 3 O o.t.<X<XQ.K.M.F.N.C.T J 3 < @ ~ $.9 @ 2 K K.d % @ M 0.t * G.F.K.G O & k 6.C & # & I.u.a < o X.#.6.M < + + % K H.H.H.~.P.F.F.G.",
"H.H.P.P.P.p % # O > | 7.7./ 0 w e J B e 3 # @.E.:X=X=XJ G T T Y v l # < < ^ 4.3 # > g J 3 # : M R.k O G H J t @ > q &.C & @ # J z e 1 $ 4.7.6.M : O O $ H n.F.H.K.F.Z.Z.J.",
"H.H.~.~.^.p & o : , ;.=.>./ q 0 0 e e 0 1 # %.E.=X=X,Xt . b b ! c e O O < ^ 4.3 O # 3 e : @ : M T.k 2 > < 0 1 @ : q *.Z & @ . 4 e u 1 $ R.R.7.M : > O $ G k.F.H.A.Z.Z.Z.p.",
"2XQ.m.l.Q R R R ] #.gXfXdX_.> e h w w : ~ X.W.O.9 3 3 w w e j j 3 $ O O $ _ R.3 > $ 3 5 # + # m <.*X,X,X] # ~ %.@.#.0.8.*X}.}.# # @ ^ #.:X:X>XS o [ @.X.Z 3 & & 3 a p f.P.",
"2XQ.g.U R R R w.r.0.1XgXgX{.v h h w w q ^ 1.W.+.l l z e w w e e t t q t t ) R.l r t r 4 w q t C 1.*X>X>X+.t ) T.7.7.0.t.,X-X}.t t t } 0.1X1X1XD : @.4.6.( l < o > % & d.I.",
"uX}.w e j , r ,X*X=.v.v.4.<XFXP & : y <.#.&.7.*XHXHXDXv < o o @ / 6.6.6.7.1.4.=X=X;X` > ;.E.7.7.0.4.$.7.7.6.#.#.t.t.6.7.T.*.&.6.6.,.1.4.GXGXfXW 4 -.W.7.*X-Xj > # # + a.K.",
"uXb.3 3 3 Z ( W.8.*.=.E.4.-XmXL # : i 1.7.*.*.*XmXfXfXl O # # o / 6.6.6.4.1.1.=X>X=XI O | 7.<.1.6.7.7.1.6.&.6.1.7.7.&.*.W.7.6.*.7.7.7.T.GXDXfXW < @.7.&.*X=X` C O @ $ y.N.",
"2Xb.$ $ . -.E.1.1.7.8.8.4.-XfXS $ < l 3.W.v.*.*XmXmXfXj + & # + / 6.1.1.4.&.&.>X>X-XD O | 4.:.>.o.8.E.1.6.&.6.,.4.4.-.*.W.0.0.v.v.E.v.v.FXmXfXU $ X.6.o.*X;XW.%.: : @ y.N.",
"U.k.O o o %.T.6.1.3.7.*.8.W.=XO.} ;.@.<.4.*.W.W.=X=X*X+.| | | ' $.R.*.*.W.7.6.7.7.W.%.| c.T.1.1.6.<.4.6.7.W.7.4.1.1.&.4.4.7.7.8.6.1.1.4.*X*X=X%.} 6.7.1.0.R.1X1XO.| | S.P.",
"F.y.O o o O.%.X.#.3.7.*.8.E.W.7.#.8.7.<.1.*.R.R.W.v.=.8.8.4.4.c.T.R.=.*.W.7.6.%.$.T.W.v.T.T.7.7.0.<.4.6.7.R.4.4.1.6.&.1.4.7.*.6.6.>.4.4.1.4.T.4.1.7.7.4.3.3.gXgXW.7.$.D.P.",
"N.y.# @ : 2 2 > Z W.0.0.1.1.4.6.&.=.7.3.4.7.6.6.7.4.4.7.7.1.1.7.1.1.&.&.6.1.>.W.W.4.6.&.6.0.=.=.6.7.W.W.W.1.7.*.8.8.6.6.&.R.R.*.7.R.7.6.r.=.4.7.&.v.v.7.6.1.dXmX1.1.3.S.N.",
"P.j.M M M S L Q ] W.6.6.7.4.1.6.&.*.7.4.7.7.6.7.7.7.4.7.7.1.#.@. .[ } }  .X.X.7.7.1.6.&.6.6.*.7.6.7.7.W.7.1.7.7.7.&.X.@.| | | ' | @.#.6.=.=.7.6.1.*.*.7.1.1.}._./ / / j.N.",
"H.D.=.7.R.>X1XBX1X7.&.&.7.7.7.7.7.7.7.7.7.7.7.7.7.7.7.7.7.7.@.} ~ V V C ~ )  .7.7.7.7.7.7.7.7.7.7.7.7.7.7.7.7.7.#.X.^ ~ C B B n C ) @.7.*.*.8.1.<.*.7.0.4.<.q @ q 0 w a.Z.",
"K.S.6.4.T.>X1XDX1X1.4.4.4.7.7.7.7.7.7.7.7.7.7.7.7.7.7.7.7. .' I }..XOX|._.] I ~ ^  .@.1.7.7.7.7.7.7.7.7.7.#. .| Z D q.{.OX+X$XOX_.B ' @.4.4.7.7.4.4.4.7.7.7.l w h h h g.F.",
"K.S.1.4.T.>X1XDX1X4.4.4.4.4.7.7.7.7.7.7.7.7.7.7.7.7.7.7.7.[ ` L XXsXaX5X.Xq.L n A [ X.1.7.7.7.7.7.7.7.7.7.#.| ) M S _.oXdXNXZXmX.Xz '  .4.4.4.7.7.4.4.8.8.8.l e c h j g.F.",
"L.a.X @ # X.1.T.4.&.6.6.0.6.7.7.7.7.7.7.7.7.7.7.7.7.7.#.@.B _.mXzXjXjXjXjXvXvXjX&X).U n  .#.7.7.7.7.7. .) n (..XdXnXjXjXjXjXjXzXaX$XS 6 8.8.&.#.#.W.W.#.4.4.v c 4 B z.P.~.",
"L.a.< < 3 ^ } T.7.7.6.6.0.7.7.7.7.7.7.7.7.7.7.7.7.7.7. .| U |.zXjXjXjXjXjXjXvXjX7X|.(.I |  .@.@.@.@. .' ' ] |.$XzXzXjXjXjXjXjXkXaX6XU l &.&.&.1.1.W.W.#.4.4.l 4 4 z _ m.L.",
"J.f.h u u @ t *.7.R.&.o.T.T.7.7.7.7.7.7.7.7.7.7.7.7.7.~ Z XX%XjXqXqXqXqXqXqXqXjXjXmXsXoX` C ^ ~ ~ V V B q.dXMXMXjXjXqXqXqXqXqXqXjXvX{.q.[  .1.7.0.-.-.1.4.4.t @ e e e k.G.",
"K.m.u.z h < q 1.7.7.7.7.1.4.7.7.7.7.7.7.7.7.7.7.7.4.1.` U sXaXjXqXqXqXqXqXqXqXjXjXMXzXaX`.'.'.'.}.'.'.S Y {.6XMXjXjXqXqXqXqXqXqXjXvX#X.XA ~ 7.7.4.*.*.6.6.7.) C @ 1 3 d.H.",
"B.N.m.J a , q 4.6.*.W.R.>.1.7.7.7.7.7.7.7.7.7.7.7.1.#.] W mXzXqXqXqXqXqXqXqXqXjXvXcXMXAXoX.X.XoX5XXX.XL P W oXzXjXjXqXqXqXqXqXqXqXjXsX5X8 V 8.6.1.7.7.6.6.6.$.O.X $ O u.H.",
"P.d.& & # }.}.W.4.#.4.3.v.*.7.7.7.7.7.7.7.7.7.7.7.@.[ |.oXjXjXqXqXqXqXqXqXqXqXvXvXMXMXVXMXMXMXMXMXMXMXzXaXaXzXvXvXvXjXjXqXqXqXqXqXjXjXkX& k -.&.#.E.8.6.6.>.T.T.+.@.%.<XiX",
"P.a.O # # }.-XW.T.$.4.3.v.7.7.7.7.7.7.7.7.7.7.7.7. .) .X$XjXjXqXqXqXqXqXqXjXjXvXcXMXMXVXMXMXNXNXNXNXNXMXMXzXvXvXvXvXjXjXqXqXqXqXqXjXkXzX& n @.#.#.W.7.6.6.>.O.O.*XE.3.<XuX",
"A.s.. $ $ ,X>X4.7.W.1.>.<.1.7.7.7.7.7.7.7.7.7.7.7.) A +XaXjXjXqXqXqXqXqXjXvXcXMXMXMXMXMXMXMXMXMXMXMXMXNXNXMXVXVXVXVXMXvXjXjXjXqXqXjXzXnXz B  .#.3.$.$.&.6.1.7 6 ;X=X-X3XiX",
"Q.b.N N N *X*X4.4.7.6.6.1.1.7.7.7.7.7.7.7.7.7.7.1.) m $XzXvXjXjXjXjXvXvXvXMXMXMXMXMXMXMXMXMXMXMXMXMXMXNXMXMXVXVXMXMXMXMXvXvXvXvXzXzXMXMXP U [ @.4.4.4.&.7.7.q 9 ;X;X-XQ.Q.",
"iX2X$.6.,.W.W.4.4.1.7.8.6.6.7.7.7.7.7.7.7.7.7.7.1.^ n 5XmXvXvXjXvXvXcXcXVXNXNXMXMXMXMXMXMXMXMXMXMXMXMXMXMXMXMXMXMXMXMXVXVXVXMXcXMXmXMXNX(.] )  .#.R.3.*.8.E.q 3 ;X:X>XD.Z.",
"2Xb.g t t X.1.E.8.8.6.6.1.6.7.7.7.7.7.7.7.7.7.7.#.' B 6XMXMXMXMXMXMXMXMXVXMXMXMXMXMXMXMXMXMXMXMXMXMXMXMXMXMXMXMXMXMXMXMXVXMXMXMXMXMXNXNX).Y n ) #.7.7.6.7.8.l w q q g g.K.",
"2Xb.a & @ X.1.E.8.8.1.1.1.1.7.7.7.7.7.7.7.7.7.7.#.' I 6XMXMXMXMXMXMXMXMXMXMXMXMXMXMXMXMXMXMXMXMXMXMXMXMXMXMXMXMXMXMXMXMXMXMXMXMXMXMXMXNX_.] f ^ #.8.8.6.6.8.l e 1 < & g.I.",
"iX2Xm.G O O.*.T.$.%.7.7.0.7.7.7.7.7.7.7.7.7.7.#. .` B 5XmXCXCXMXMXMXMXMXMXMXMXMXMXMXMXMXMXMXMXMXMXMXMXMXMXMXMXMXMXMXMXMXMXMXMXMXMXMXMXMXOX{._ '  .#.#.7.6.6.l 0 F F F j.Z.",
"uX2XN.H 3 C ^ 7.4.#.7.7.4.7.7.7.7.7.7.7.7.7.7.#.^ ] q.sXMXNXNXMXMXMXMXMXMXMXMXMXMXMXMXMXMXMXMXMXMXMXMXMXMXMXMXMXMXMXMXMXMXMXMXMXMXMXMXMX5X.X_ | @.#.4.7.6.6.l 0 F F F k.Z.",
"3X<XH.K g $ y 6.6.6.6.6.4.4.7.7.7.7.7.7.7.7.6.X.A '.+XnXNXMXMXZXMXMXMXMXMXMXMXMXMXMXMXMXMXMXMXMXMXMXMXMXMXMXMXMXMXMXMXMXMXMXMXMXMXMXMXMXdX+X' O.4.4.4.3.4.1.l e b b b k.A.",
"Y.Y.n.H 1 ;.+.6.6.4.7.7.*.7.7.7.7.7.7.7.7.7.7.@.Z }.aXcXcXVXVXVXMXMXMXMXMXMXMXMXMXMXMXMXMXMXMXMXMXMXMXMXMXMXMXMXMXMXMXMXMXMXMXMXMXMXMXNXMX6X_.+.) #.*.7.7.v.r 3 c S l.m.H.",
"I.K.n.x : ,X>X6.4.4.4.4.*.7.7.7.7.7.7.7.7.7.7.@.( |.cXcXbXVXVXVXVXMXMXMXMXMXMXMXMXMXMXMXMXMXMXMXMXMXMXMXMXMXMXMXMXMXMXMXMXMXMXMXMXMXMXNXCXaX|.] ~ &.*.=.v.v.q > e J C.P.!.",
"Z.s.+ % 2 }.-X$.7.6.#.#.0.7.7.7.7.7.7.7.7.7.#.O.L ].tX9X9XtXwXvXMXVXMXVXVXVXMXMXMXAXZXNXNXNXMXMXMXMXMXMXMXMXMXMXMXMXNXZXZXAXAXMXMXMXMXMXeXwX8Xw.t $.7.#.7.W.t # @ # & s.J.",
"F.h.k k l }.=X$.7.6.1.1.7.7.7.7.7.7.7.7.7.7.@.| P ].9X9X9X9XwXeXcXVXVXVXVXVXMXMXnXsX%XoXaXzXMXMXMXMXMXVXMXMXMXVXMXMXNXaX%X%X5XMXMXMXcXlXeX0X8Xw.l $.4.#.7.W.t @ @ @ & s.J.",
"~.D.1.7.R.<.1.7.7.7.3.3.#.#.7.7.7.7.7.7.7.7.} ' W  X4X9X9X9X9XtXvXbXCXCXVXVXMXmXsXi.L h |.+XNXNXMXMXMXVXVXVXVXVXNXNXmX|.P L U dXzXbXeXtX4X4X4Xe.U @.%.1.#.X.9 . . . : a.H.",
"H.h.M M M m V 3.7.*.7.7.7.7.7.7.7.7.7.7.7.7.) ' w. X4X9X9X9X9X9XeXeXCXCXVXVXMX5X.X& * = v Q AXCXMXVXCXVXVXVXVXVXNXzX|.L + * & {.#XeXtX0X9X9X4X Xw.@.@.7.1.<.' ` ^ ~ ~ j.K.",
"M.y.< > O + 6 R.7.&.&.&.0.7.7.7.7.7.7.7.7.7.^ ' w.@X4X9X9X9X9X9XeXeXCXCXVXVXMX$X).      + h AXAXMXCXCXMXMXMXVXVXNXaXq.q       Y [.eX0X0X9X9X4X@Xe.|  .0.3.:.v.b.T.4.4.z.A.",
"L.d.% O ; > q <.6.8.7.4.*.7.7.7.7.7.7.7.7.7. .' U  X4X9X9X9X9X9XeXeXMXVXVXVXMXXX).* = = + g AXAXMXNXNX|.XX$XaXNXMXsXP &   & g P ].eX9X4X9X9X9X@Xe.' } &.8.*Xk 1 9 3 3 d.H.",
"L.f.d 3 : < q [ @.7.7.4.*.7.7.7.7.7.7.7.7.7.X.| P ].9X9X9X9X9X9XeXeXMXVXVXVXMXoX`.& * = & z AXAXVXzXaX_.`.|.%XzXMXaXW g   3 j W ].eX9X4X9X9X9X@Xe.' } &.8.*Xq o @ > 2 u.H.",
"A.K.N.J w u e o C c.7.8.1.1.7.7.7.7.7.7.7.7.7.@.B ].tX9X9X9X9X9XeXeXMXVXVXMXNXaXoXz & = U ).AXAXAX.X).P L v ).XXMXnX$XU * g S $X7XeXtX9X4X9X9X Xw.'  .4.7.6.q @ o O 2 u.~.",
"Q.Y.A.H 3 3 e ( | 4.7.6.6.7.7.7.7.7.7.7.7.7.7.@.Z e.@X0X9X9X9X9XeXvXMXMXVXMXNXnXsX{.).W .X$XAXAXAX5XoX|.|.{.#X6XMXMXaX.Xq._.{.aXkXvXtX9X4X4X9Xe.P @.@.4.4.6.i 3 3 g H V.H.",
"uX2XZ.H & + q >X*X4.1.1.7.7.7.7.7.7.7.7.7.7.7.#.^ r. X0X9X9X9X9XeXcXMXMXMXMXMXNXNXNXMXmXNXNXVXVXMXMXmXnXMXMXMXMXMXMXNXMXmXnXnXCXMXvXtX9X4X4X9Xw.l @.7.3.4.$.l e c J h.n.M.",
"2Xb.g & $ # q -X*X7.1.1.W.W.7.7.7.7.7.7.7.7.#.X.~ M j @X0X9XtXeXcXMXMXMXMXMXMXCXNXMXMXNXNXNXMXMXMXMXMXMXMXVXVXMXMXMXMXNXNXNXNXNXMXMXeXeX9X@X XU n @.*.#.4.R.t < $ d n.F.F.",
"2Xb.3 & 6 6 l -X*X8.1.1.W.W.7.7.7.7.7.7.7.7.@. .Z M h  X@X9XwXvXMXMXMXMXMXMXMXCXNXMXNXNXNXNXMXMXMXMXMXMXVXVXVXMXMXMXMXCXCXCXCXNXVXVXlXeX0X@Xe.D m @.*.%.4.R.q o * d f.Z.G.",
"uX<X0.7.&.T.T.R.4.7.0.0.o.&.7.7.7.6.#. .| } m B {.XX#Xw.W vXvXVXVXMXMXMXMXCXCXVXMXNXNXNXMXMXMXMXMXMXMXMXMXMXMXMXMXMXMXMXMXMXMXMXMXVXVXMXOX_.n ) #.8.8.7.7.7.q : < 2 % y.K.",
"/.b.( ~ ~ ^ ) 7.7.7.0.0.,.6.7.1.1.^ ' ] ` ` I ] $X%X6X).q.XX6XCXVXMXMXMXMXVXCXVXVXNXNXNXMXMXMXMXMXMXMXMXMXMXMXMXMXMXMXMXMXMXMXMXMXZXaX5Xq.] ^ @.&.8.8.7.4.4.Z M B B B h.K.",
"I.g.2 # # . 9 -.*.v.R.R.4.1.7.#.#.8 k P L L [.XXAXMXcX{.).Y |.AXMXMXMXMXMXMXMXVXVXMXMXMXMXMXMXMXMXMXMXMXMXVXMXMXMXMXMXMXMXMXMXMXNXZXXX`.6 m $.8.t.&.&.6.1.4.c.c.}.v.W.D.G.",
"F.n.a.y.y.$ y =.8.7.7.7.>.X.| ' ` _.{..XP g $XaXVXMXMX6X%X_.).(.oXsXAXAXCXVXMXMXVXVXVXVXMXMXMXMXMXMXMXMXMXMXVXVXVXVXMXNXZXMXnX$X|.q.` ` ) } $.*.8.7.7.8.6.1.*X*Xt y i g.N.",
"J.J.Z.n.n.$ y t.6.6.*.*.>.X.) I I #X%X&XP & sXnXMXMXMXvXjX{.q.S |.$XAXAXCXCXMXMXMXVXVXVXVXMXMXMXMXMXMXMXMXMXVXVXVXVXMXZXZXmXdX.Xq.l C V &.&.%.*.8.4.4.8.7.1.>X*XX . - u.N.",
"P.P.P.P.P.& t W.7.1.W.W.[ ) I oXjXjX6X.X).W kXcXcXMXMXMXMXmXaX$X(.P U q.{.XXoX$X%X6XaXzXMXNXMXMXMXMXMXMXMXMXMXmXaXsXoX{.(.v z S S B | #.1.4.R.4.#.7.7.*.&.1.-X}.@ # % s.H.",
"P.L.U.Y.Y.q t ' O.1.7.*.) ` q.#XjXkX6X{._.w.wXeXvXlXcXVXMXMXzXsX{.).)._.|..X.XXXXX#X6XaXMXNXMXMXMXMXMXMXMXMXaX5X#XoXXX|.{.q.W ).q.] ' [ 6.1.4.4.1.7.7.*.7.1.v.] < q d h.H.",
"G.U.iX3X<Xl w # C 4.7.#.k q.6XaXjXmX5X_.|. X0X9X9XtXeXbXVXVXVXMXvXvXzXaXoX{._.(.(.)..X5XMXCXMXMXMXMXMXMXMXMXXX).W W {.oX6XvXcXVXjX#XI 8 &.&.#.4.0.W.W.8.7.4.t @ a J F.F.F.",
"G.S.q.q.q.0 w O C 6. .| U [.aXkXvXNXsX_.|. X0X9X9X9XtXeXvXVXVXMXMXMXMXzXaX6X%X$X$X%XsXzXMXVXMXMXMXMXMXMXMXMXaX%X#X%X6XaXzXMXMXVXvX7Xq.S &.&.1.4.0.7.7.=.*.7.) ~ 3 g H h.N.",
"G.j.b b b 0 w O Z 6.) ) )..XjXvXcXZXsX_.|. X0X9X9X9X9XtXeXVXVXMXVXVXMXMXVXMXcXcXcXMXMXMXMXMXMXMXMXMXMXMXMXMXMXMXMXVXVXVXMXMXMXMXMXvX_.U X.#.1.0.0.4.4.-.=.8.T.%.@ @ # y.B.",
"P.d.3 , , w w # C 4.f 8 #X&XjXvXVXMXaX.X].w.4X9X9X9X9X0X0XbXbXVXVXVXVXVXVXVXMXMXMXCXNXNXNXMXMXMXMXMXMXMXMXMXMXMXMXMXZXzXaXnXnXMXMXvXXX{.^ } 6.6.&.3.3.1.6.6.=.+.X o + s.H.",
"P.g.j r r w q z ` 1.8 6 %X&XjXnXVXMXdXoX).Q 4X9X9X9X9X0X0XlXbXVXVXVXVXVXVXMXMXmXnXzXnXmXMXNXMXMXMXMXMXMXMXMXMXMXMXMXsX%XoXaXnXMXMXvX#X.X~ ' 6.6.&.4.4.1.6.6.7.@.q q q j.U.",
"Z.D.;X*X*X3 v FX1Xo.t g 6X6X6XvXVXVXMXaXP # @X0X9X9X9X9X9XeXlXMXMXMXMXNXZXmXfX%X$X.X+XsXmXNXNXNXVXVXVXMXMXMXMXMXNXaXY L z %XmXZXMXvX&X#XA ~ 8.6.6.=.=.6.>.:.4.4.W.W.4.<XiX",
"F.D.;X;X*X3 z DX1Xo.t q [.).W 6XZXVXMXzX).v  X@X9X9X9X9XtXvXcXMXMXMXMXMXMXsX$XXX.X{.{.|.`.[.$XsXVXVXVXMXMXMXMXMX.X[.W ).`.aXMXMXMXvX%X#XV ^ 7.6.1.7.7.6.1.>.W.E.Z Z N Q.iX",
"^.Y.;X;X;X3 z HX1X@.g & P z & oXZXMXMXZX.XW e. X9X9XtXtXtXcXMXMXMXMXMXMXnXoX{.`.`._.q.U j j _.oXMXVXVXMXMXMXMXmXP L (.oXmXMXVXMXvXjX#X XV ^ 0.1.<.7.7.6.6.6.>X*X; - . b.iX",
"I.D.7.0.0.| O.=X*X&.) ^ ~ C V ] (.5XsXmXdXaXU Q  X@X9XtXeXVXMXNXNXNXMXMXMXzXzXzXdXdXaXaX$XXXS q.oXdXZXMXVXCX$X{.L Y aXzXMXVXVXvXvXjX{.q.| @.#.1.7.4.7.=.*.*.:X=X> : : b.iX",
"I.S.X.X.X.$.$.*.7.6. .} ~ ~ ~ ` U oX$XsXaXzXP P e.@X4XtXeXCXCXNXNXNXMXMXMXCXCXCXCXZXZXAXdX5XS Y .XaXZXMXVXCXXX(.Y (.MXMXMXVXVXvXjXjX_.Q @.X.#.1.7.4.4.=.*.*.=X}.> < w b.iX",
"J.s.> : : %.W.4.3.W.%.{ 0.7.7.#.X.8 7 6 z L Y L = v ].qXbXVXVXNXVXVXVXVXVXVXVXCXCXMXVXVXcXvX$X|.Y 5XSXMXVXVX).z sXnXVXVXMXvXvXqX7X#XS 6 #.#.6.7.0.$.$.7.7.*.t @ a U <X2XuX",
"Q.z.S j < ~ ' 3.T.W.1.1.4.4.7.#.#.~ ~ V Z ` ` I 7 D w.|.XXaXzXMXMXMXMXMXMXcXcXnXnXvXvXvXjX6X).).).5XmXzXzXzX(.j &XkXnXMXvXvXjX&XXX).D A 1.6.6.1.1.*.*.7.7.7.t @ h S l.<XuX",
"iX2X<XU e - q T.T.W.8.8.>.1.7.7.7.7.7.#.X. .[ [ } ^ V B I oX%XzXvXvXvXvXvXvXvXjXjXjXjXjX%XXXg P XX5XaXaXaXaXW h #X&XkXjXjXjXjXXXq.k )  .7.7.0.<.{ }.}.R.4.4.y . h h j b.2X",
"iXiX2X` 0 e e k ^ 7.7.7.*.7.7.7.7.7.7.7.#.#.#.#.#.@. .' ' I U U q.q._._.[.{.{.].]._.).q.L B 6 k I ] ] ] ] ] B k S P q.q.q.Y U D Z ^ @.#.W.7.4.4.4.=.=.8.7.3.' ` 1 < 3 b.uX",
"iXiXiX` 0 c e @ N 6.4.4.v.v.7.7.7.7.7.7.7.7.7.7.7.7.7. .) n n k S S U U W W W W W Y P S k 6 6 7 n n n n n n n f 6 g S S S l k 8 V } #.7.W.W.4.4.0.*.*.6.7.0.v.+.@ @ O b.uX",
"K.K.m.J w u e O C 4.W.W.4.1.1.7.7.7.7.1.7.7.0.0.<.6.6.4.4.r.8.W.$.$.%.@.| | }  . .@.@.#.4.4.r.8.4.4.4.8.8.6.6.7.7.4.4.$.-.W.W.7.7.*.W.W.7.7.*.6.,.4.4.4.6.,.>X>XW.R.4.z.A.",
"K.m.a.B r w e L ] 4.7.7.4.4.7.7.7.4.6.1.4.7.7.7.4.7.7.1.1.=.8.T.4.4.$.#. . . .@.@.@.#.1.4.4.=.8.7.4.4.7.7.6.6.7.7.7.4.4.*.7.7.7.7.7.7.7.7.7.*.6.6.4.4.4.6.6.>X>XW.7.3.z.A.",
"P.g.q l l $ j BX1XW.1.1.c.v.E.W.W.#.#.*.4.4.-.-.W.W.4.7.8.&.1.4.4.4.8.7.1.4.7.*.*.#.7.0.1.1.7.7.8.E.E.1.6.8.6.1.&.&.0.0.0.#.#.6.7.8.6.1.6.7.T.7.8.8.8.0.7.1.;X>X#.$.W.D.L.",
"K.j.` ' ' `.|.-X*X=.6.1.4.4.7.7.$.1.6.7.7.1.&.*.7.7.1.7.0.4.7.6.4.3.&.&.&.1.1.6.7.*.7.3.1.1.4.7.*.*.*.<.4.7.7.7.#.&.7.7.1.1.6.4.4.3.4.4.4.4.v.7.8.4.4.6.7.W.` S m M M j.F.",
"K.S.=.6.6.DXfX1.&.r.6.4.4.1.1.#.#.1.6.8.7.1.1.1.7.6.1.R.R.4.7.&.7.3.#.#.&.6.1.6.6.=.4.4.<.<.3.4.&.&.&.4.3.0.0.8.#.&.8.6.<.6.6.3.4.:.3.0.3.4.v.7.8.:.<.&.7.W.q > # # # y.M.",
"J.D.8.7.&.gXgXT.4.>.7.8.*.&.1.4.3.8.7.#.*.=.4.4.*.7.4.$.$.4.7.&.&.#.8.7.0.0.0.>.6.8.7.$.7.8.&.6.6.6.1.8.7.&.7.4.3.7.=.7.4.3.R.7.7.*.&.#.o.6.0.1.1.W.W.*.7.6.@.| - : > u.~.",
"F.z.@.| } 1X1XT.4.>.7.8.*.6.1.4.4.7.7.#.*.=.4.4.*.7.4.$.$.4.7.&.#.#.8.7.0.7.7.1.1.8.*.$.7.8.&.6.6.6.1.7.7.*.7.4.3.4.*.7.7.4.4.7.7.*.*.#.o.6.0.1.1.W.W.*.6.6.7.@.. o : d.P.",
"K.a.# O O o.8.W.7.*.6.0.7.7.3.7.=.3.3.0.6.>.1.1.#.7.W.7.7.0.7.6.1.<.8.7.4.*.-.T.T.8.*.%.4.4.3.4.1.&.&.<.4.E.*.*.6.6.1.6.6.-.-.R.R.3.7.8.1.6.8.7.&.-.-.8.7.#.T.%.* * X s.J.",
"K.a.> > O @.7.4.4.7.7.7.7.*X1X] Z N ^ W.6.&.4.E.1X1X1X` Z C Z Z @.1.6.7.7.*.&.W.W.*X| N @.W.4.4.1.6.6.4.7.W.7.*.6.6.>.1.6.*.*.W.T.4.7.6.1X1X1X+.C @.7.*X*XW.^ N 3 1 1 k.H.",
"L.a.2 > > @.4.>.1.4.W.W.4.<XHXL > X y W.*.-.T.=XmXnXBXj O o : < ' *.<.1.=.6.0.=X=X;X( - O.W.4.4.7.6.6.=.v.T.W.8.6.6.:.>.6.*.*.W.T.4.1.1.DXDXDXY $ @.7.,X;X;X0 : h e 0 g.~.",
"F.a.> o X t k g ^ 6.pXgXgX{.v e 4 e w t ^ 4.R.O.j l l e w w e h q t q q r ' $.j j q q w q q y N =.*X>X:Xv.q ' T.=.7.3.*X>X:X=Xy t 9 ' v.1X1X1XP 2 Q w.w.w.w.R R R R R C.B.",
"F.d.3 3 # & & 3 N X.gXfXgX_.> 4 5 u w . ~ @.W.O.1 1 q w w 0 j z q 6 : > < ~ c.3 > X 3 e : X . M =.*X*X=X] : Z %.+.@.R.*X,X=X}.. @ : ` +.>X>X>XS 2 R R R R E E E R Q W C.B.",
"F.H.!.I.Y.& + ; @ @ | *.6./ 0 w w g g g < ; O.W.;X=X=Xr < F T M.A.A.% % * ~ 0.6 . # 3 h 3 # o M R.8 . : < h 3 # ; q v.Z : > > a h h 1 @ >.,.6.M # O O < 3 w F R W l.z.H.!.",
"F.H.!.K.S.& + o @ @ | *.7./ 0 e 4 K K K g : O.E.;X;X=X0 : F T M.Z.Z.% % # ^ 7.6 $ x H J x x o M T.8 . x G K H H k B v.Z : O 3 J J J q @ >.6.8.M @ < < @ 3 w F Q l.l.A.H.!.",
"H.H.P.F.Z.p % + # @ | $.4./ q s s G.F.A.H & +.8.,X;X;Xy 1 b T ^.F.Z.> > < ( &.6 d n.m.m.h.k.> M c.k $ h.n.!.!.~.j.k.v.Z . % p M.Z.A.d $ >.1.W.n + 4 < X 1 0 R W S.A.H.H.H.",
"K.K.F.J.Z.d.d.a.y.y.S.D.S.j.k.g.g.H.F.F.h.s.S.S.Y.Y.Y.g.a.j.m.!.H.F.a.a.a.j.z.a.f.K.K.F.Z.n.y.h.S.k.s.m.m.H.!.!.m.A.S.j.s.a.d.N.N.K.h.y.x.D.U.h.y.d.d.s.k.g.C.C.H.H.H.H.H.",
"K.K.G.Z.p.I.I.K.N.N.~.~.N.N.F.P.I.H.F.F.F.G.G.G.K.K.K.P.P.G.H.!.H.H.L.L.F.A.A.F.F.K.P.H.J.J.P.K.G.A.A.m.N.H.!.!.P.P.K.K.Z.L.K.N.B.P.B.B.G.H.~.H.M.H.H.H.L.I.B.B.!.!.H.H.H."
};
