/* XPM */
static char *_[] = {
/* columns rows colors chars-per-pixel */
"85 85 32 1 ",
"  c #4FA4B8",
". c #51A6B8",
"X c #52A7B8",
"o c #53A8B8",
"O c #54A9B9",
"+ c #55AAB9",
"@ c #56ABB9",
"# c #57ACB9",
"$ c #58AEB9",
"% c #5BB0B9",
"& c #5CB2BA",
"* c #61B6BA",
"= c #62B7BA",
"- c #63B8BA",
"; c #67BCBB",
": c #6ABFBB",
"> c #6BC1BB",
", c #6FC5BC",
"< c #71C6BC",
"1 c #73C9BC",
"2 c #76CBBD",
"3 c #77CDBD",
"4 c #79CFBD",
"5 c #7ED4BE",
"6 c #82D8BE",
"7 c #85DABE",
"8 c #86DCBF",
"9 c #87DDBF",
"0 c #8BE1BF",
"q c #8DE3BF",
"w c #8FE5C0",
"e c #92E8C0",
/* pixels */
"                                                                                     ",
"                                                                                     ",
"                                                                                     ",
"                                                                                     ",
"                                                                                     ",
"                            @000000000000000&                                        ",
"                            @eeeeeeeeeeeeeee&                                        ",
"                            @eeeeeeeeeeeeeee&                                        ",
"                            @eeeeeeeeeeeeeee&                                        ",
"                            @eeeeeeeeeeeeeee&                                        ",
"           @77777777777777777eeeeeeeeeeeeeee77777777777777777777>                    ",
"           @eeeeeeeeeeeeeeeeeeeeeeeeeeeeeeeeeeeeeeeeeeeeeeeeeeee2                    ",
"           @eeeeeeeeeeeeeeeeeeeeeeeeeeeeeeeeeeeeeeeeeeeeeeeeeeee2                    ",
"           @eeeeeeeeeeeeeeeeeeeeeeeeeeeeeeeeeeeeeeeeeeeeeeeeeeee2                    ",
"           @eeeeeeeeeeeeeeeeeeeeeeeeeeeeeeeeeeeeeeeeeeeeeeeeeeee2                    ",
"           .---------------------------0eeeeeeeeeeeeee2---------&                    ",
"                                       0eeeeeeeeeeeeee:                              ",
"                                       0eeeeeeeeeeeeee:                              ",
"                                       0eeeeeeeeeeeeee:                              ",
"                                       0eeeeeeeeeeeeee:                              ",
"                                       0eeeeeeeeeeeeee:                              ",
"                                       0eeeeeeeeeeeeee:                              ",
"                                       @@@@@@@@@@@@@@@.                              ",
"                                                                                     ",
"                                                                                     ",
"                                                                                     ",
"                                                                                     ",
"                                                                                     ",
"                                                                                     ",
"                                                                                     ",
"                                                                                     ",
"                                                                                     ",
"           @55555555555555554                         >5555555555555555*             ",
"           @eeeeeeeeeeeeeeee0                         4eeeeeeeeeeeeeeee:             ",
"           @eeeeeeeeeeeeeeee0                         2eeeeeeeeeeeeeeee:             ",
"           @eeeeeeeeeeeeeeee0                         2eeeeeeeeeeeeeeee:             ",
"           @eeeeeeeeeeeeeeee0                         2eeeeeeeeeeeeeeee:             ",
"           .::::::::::::::::-          2222222222222227eeeeeeeeeeeeeeee7222222222-   ",
"                                       0eeeeeeeeeeeeeeeeeeeeeeeeeeeeeeeeeeeeeeeee2   ",
"                                       0eeeeeeeeeeeeeeeeeeeeeeeeeeeeeeeeeeeeeeeee2   ",
"                                       0eeeeeeeeeeeeeeeeeeeeeeeeeeeeeeeeeeeeeeeee2   ",
"                                       0eeeeeeeeeeeeeeeeeeeeeeeeeeeeeeeeeeeeeeeee2   ",
"                            .<<<<<<<<<<weeeeeeeeeeeeeeeeeeeee2<<<<<<<<<<<<<<<<<<<-   ",
"                            @eeeeeeeeeeeeeeeeeeeeeeeeeeeeeeee&                       ",
"                            @eeeeeeeeeeeeeeeeeeeeeeeeeeeeeeee&                       ",
"                            @eeeeeeeeeeeeeeeeeeeeeeeeeeeeeeee&                       ",
"                            @eeeeeeeeeeeeeeeeeeeeeeeeeeeeeeee&                       ",
"                            @22222222222222222222222222222222@                       ",
"                                                                                     ",
"                                                                                     ",
"                                                                                     ",
"                                                                                     ",
" @---------*                                                                         ",
" -eeeeeeeee0                                                                         ",
" -eeeeeeeee0                                                                         ",
" -eeeeeeeee0                                                                         ",
" -eeeeeeeee0                                                                         ",
" -eeeeeeeee0&&&&&&&&&&&&&&&&&                                                        ",
" -eeeeeeeeeeeeeeeeeeeeeeeeee0                                                        ",
" -eeeeeeeeeeeeeeeeeeeeeeeeee0                                                        ",
" -eeeeeeeeeeeeeeeeeeeeeeeeee0                                                        ",
" -eeeeeeeeeeeeeeeeeeeeeeeeee0                                                        ",
" -eeeeeeeeeeeeeeeeeeeeeeeeee0                                                        ",
" -eeeeeeeeeeeeeeeeeeeeeeeeee0                                                        ",
":2eeee02222222222222222222222                                                        ",
"eeeeee7                                                                              ",
"eeeeee7                                                                              ",
"eeeeee7                                                                              ",
"                                                                                     ",
"                                                                                     ",
"                                                                                     ",
"                                                                                     ",
"                                                                                     ",
"                                                                                     ",
"                                                 $&&&&&&&&&&&&&&@                    ",
"                                                 5eeeeeeeeeeeeee2                    ",
"                                                 5eeeeeeeeeeeeee2                    ",
"                                                 5eeeeeeeeeeeeee2                    ",
"                                                 5eeeeeeeeeeeeee2                    ",
"                                                 4000000000000002                    ",
"                                                                                     ",
"                                                                                     ",
"                                                                                     ",
"                                                                                     ",
"                                                                                     "
};
